<svg width="634" height="84" viewBox="0 0 634 84" fill="none" xmlns="http://www.w3.org/2000/svg">
<rect width="634" height="84" rx="12" fill="#F5F5F5"/>
<path d="M466.347 48.144C465.087 48.144 463.947 47.868 462.927 47.316C461.919 46.752 461.127 45.984 460.551 45.012C459.975 44.028 459.687 42.924 459.687 41.7C459.687 40.476 459.975 39.378 460.551 38.406C461.127 37.422 461.925 36.654 462.945 36.102C463.965 35.538 465.105 35.256 466.365 35.256C467.349 35.256 468.249 35.424 469.065 35.76C469.881 36.084 470.577 36.57 471.153 37.218L469.983 38.352C469.035 37.356 467.853 36.858 466.437 36.858C465.501 36.858 464.655 37.068 463.899 37.488C463.143 37.908 462.549 38.49 462.117 39.234C461.697 39.966 461.487 40.788 461.487 41.7C461.487 42.612 461.697 43.44 462.117 44.184C462.549 44.916 463.143 45.492 463.899 45.912C464.655 46.332 465.501 46.542 466.437 46.542C467.841 46.542 469.023 46.038 469.983 45.03L471.153 46.164C470.577 46.812 469.875 47.304 469.047 47.64C468.231 47.976 467.331 48.144 466.347 48.144ZM478.563 38.37C479.775 38.37 480.735 38.724 481.443 39.432C482.163 40.128 482.523 41.154 482.523 42.51V48H480.795V42.708C480.795 41.784 480.573 41.088 480.129 40.62C479.685 40.152 479.049 39.918 478.221 39.918C477.285 39.918 476.547 40.194 476.007 40.746C475.467 41.286 475.197 42.066 475.197 43.086V48H473.469V34.644H475.197V39.81C475.557 39.354 476.025 39 476.601 38.748C477.189 38.496 477.843 38.37 478.563 38.37ZM489.195 38.37C490.515 38.37 491.523 38.694 492.219 39.342C492.927 39.99 493.281 40.956 493.281 42.24V48H491.643V46.74C491.355 47.184 490.941 47.526 490.401 47.766C489.873 47.994 489.243 48.108 488.511 48.108C487.443 48.108 486.585 47.85 485.937 47.334C485.301 46.818 484.983 46.14 484.983 45.3C484.983 44.46 485.289 43.788 485.901 43.284C486.513 42.768 487.485 42.51 488.817 42.51H491.553V42.168C491.553 41.424 491.337 40.854 490.905 40.458C490.473 40.062 489.837 39.864 488.997 39.864C488.433 39.864 487.881 39.96 487.341 40.152C486.801 40.332 486.345 40.578 485.973 40.89L485.253 39.594C485.745 39.198 486.333 38.898 487.017 38.694C487.701 38.478 488.427 38.37 489.195 38.37ZM488.799 46.776C489.459 46.776 490.029 46.632 490.509 46.344C490.989 46.044 491.337 45.624 491.553 45.084V43.752H488.889C487.425 43.752 486.693 44.244 486.693 45.228C486.693 45.708 486.879 46.086 487.251 46.362C487.623 46.638 488.139 46.776 488.799 46.776ZM498.135 40.062C498.435 39.51 498.879 39.09 499.467 38.802C500.055 38.514 500.769 38.37 501.609 38.37V40.044C501.513 40.032 501.381 40.026 501.213 40.026C500.277 40.026 499.539 40.308 498.999 40.872C498.471 41.424 498.207 42.216 498.207 43.248V48H496.479V38.46H498.135V40.062ZM503.739 34.644H505.467V48H503.739V34.644ZM508.766 38.46H510.494V48H508.766V38.46ZM509.63 36.624C509.294 36.624 509.012 36.516 508.784 36.3C508.568 36.084 508.46 35.82 508.46 35.508C508.46 35.196 508.568 34.932 508.784 34.716C509.012 34.488 509.294 34.374 509.63 34.374C509.966 34.374 510.242 34.482 510.458 34.698C510.686 34.902 510.8 35.16 510.8 35.472C510.8 35.796 510.686 36.072 510.458 36.3C510.242 36.516 509.966 36.624 509.63 36.624ZM522.415 43.284C522.415 43.416 522.403 43.59 522.379 43.806H514.639C514.747 44.646 515.113 45.324 515.737 45.84C516.373 46.344 517.159 46.596 518.095 46.596C519.235 46.596 520.153 46.212 520.849 45.444L521.803 46.56C521.371 47.064 520.831 47.448 520.183 47.712C519.547 47.976 518.833 48.108 518.041 48.108C517.033 48.108 516.139 47.904 515.359 47.496C514.579 47.076 513.973 46.494 513.541 45.75C513.121 45.006 512.911 44.166 512.911 43.23C512.911 42.306 513.115 41.472 513.523 40.728C513.943 39.984 514.513 39.408 515.233 39C515.965 38.58 516.787 38.37 517.699 38.37C518.611 38.37 519.421 38.58 520.129 39C520.849 39.408 521.407 39.984 521.803 40.728C522.211 41.472 522.415 42.324 522.415 43.284ZM517.699 39.828C516.871 39.828 516.175 40.08 515.611 40.584C515.059 41.088 514.735 41.748 514.639 42.564H520.759C520.663 41.76 520.333 41.106 519.769 40.602C519.217 40.086 518.527 39.828 517.699 39.828Z" fill="#B1B1B1"/>
<path d="M545.802 39.58C546.61 39.58 547.25 39.816 547.722 40.288C548.202 40.752 548.442 41.436 548.442 42.34V46H547.29V42.472C547.29 41.856 547.142 41.392 546.846 41.08C546.55 40.768 546.126 40.612 545.574 40.612C544.95 40.612 544.458 40.796 544.098 41.164C543.738 41.524 543.558 42.044 543.558 42.724V46H542.406V39.64H543.51V40.6C543.742 40.272 544.054 40.02 544.446 39.844C544.846 39.668 545.298 39.58 545.802 39.58ZM553.334 46.072C552.702 46.072 552.134 45.932 551.63 45.652C551.126 45.372 550.73 44.988 550.442 44.5C550.162 44.004 550.022 43.444 550.022 42.82C550.022 42.196 550.162 41.64 550.442 41.152C550.73 40.656 551.126 40.272 551.63 40C552.134 39.72 552.702 39.58 553.334 39.58C553.966 39.58 554.53 39.72 555.026 40C555.53 40.272 555.922 40.656 556.202 41.152C556.49 41.64 556.634 42.196 556.634 42.82C556.634 43.444 556.49 44.004 556.202 44.5C555.922 44.988 555.53 45.372 555.026 45.652C554.53 45.932 553.966 46.072 553.334 46.072ZM553.334 45.064C553.742 45.064 554.106 44.972 554.426 44.788C554.754 44.596 555.01 44.332 555.194 43.996C555.378 43.652 555.47 43.26 555.47 42.82C555.47 42.38 555.378 41.992 555.194 41.656C555.01 41.312 554.754 41.048 554.426 40.864C554.106 40.68 553.742 40.588 553.334 40.588C552.926 40.588 552.558 40.68 552.23 40.864C551.91 41.048 551.654 41.312 551.462 41.656C551.278 41.992 551.186 42.38 551.186 42.82C551.186 43.26 551.278 43.652 551.462 43.996C551.654 44.332 551.91 44.596 552.23 44.788C552.558 44.972 552.926 45.064 553.334 45.064ZM561.623 39.58C562.431 39.58 563.071 39.816 563.543 40.288C564.023 40.752 564.263 41.436 564.263 42.34V46H563.111V42.472C563.111 41.856 562.963 41.392 562.667 41.08C562.371 40.768 561.947 40.612 561.395 40.612C560.771 40.612 560.279 40.796 559.919 41.164C559.559 41.524 559.379 42.044 559.379 42.724V46H558.227V39.64H559.331V40.6C559.563 40.272 559.875 40.02 560.267 39.844C560.667 39.668 561.119 39.58 561.623 39.58ZM572.178 42.856C572.178 42.944 572.17 43.06 572.154 43.204H566.994C567.066 43.764 567.31 44.216 567.726 44.56C568.15 44.896 568.674 45.064 569.298 45.064C570.058 45.064 570.67 44.808 571.134 44.296L571.77 45.04C571.482 45.376 571.122 45.632 570.69 45.808C570.266 45.984 569.79 46.072 569.262 46.072C568.59 46.072 567.994 45.936 567.474 45.664C566.954 45.384 566.55 44.996 566.262 44.5C565.982 44.004 565.842 43.444 565.842 42.82C565.842 42.204 565.978 41.648 566.25 41.152C566.53 40.656 566.91 40.272 567.39 40C567.878 39.72 568.426 39.58 569.034 39.58C569.642 39.58 570.182 39.72 570.654 40C571.134 40.272 571.506 40.656 571.77 41.152C572.042 41.648 572.178 42.216 572.178 42.856ZM569.034 40.552C568.482 40.552 568.018 40.72 567.642 41.056C567.274 41.392 567.058 41.832 566.994 42.376H571.074C571.01 41.84 570.79 41.404 570.414 41.068C570.046 40.724 569.586 40.552 569.034 40.552Z" fill="#B1B1B1"/>
<path d="M335.802 39.58C336.61 39.58 337.25 39.816 337.722 40.288C338.202 40.752 338.442 41.436 338.442 42.34V46H337.29V42.472C337.29 41.856 337.142 41.392 336.846 41.08C336.55 40.768 336.126 40.612 335.574 40.612C334.95 40.612 334.458 40.796 334.098 41.164C333.738 41.524 333.558 42.044 333.558 42.724V46H332.406V39.64H333.51V40.6C333.742 40.272 334.054 40.02 334.446 39.844C334.846 39.668 335.298 39.58 335.802 39.58ZM343.334 46.072C342.702 46.072 342.134 45.932 341.63 45.652C341.126 45.372 340.73 44.988 340.442 44.5C340.162 44.004 340.022 43.444 340.022 42.82C340.022 42.196 340.162 41.64 340.442 41.152C340.73 40.656 341.126 40.272 341.63 40C342.134 39.72 342.702 39.58 343.334 39.58C343.966 39.58 344.53 39.72 345.026 40C345.53 40.272 345.922 40.656 346.202 41.152C346.49 41.64 346.634 42.196 346.634 42.82C346.634 43.444 346.49 44.004 346.202 44.5C345.922 44.988 345.53 45.372 345.026 45.652C344.53 45.932 343.966 46.072 343.334 46.072ZM343.334 45.064C343.742 45.064 344.106 44.972 344.426 44.788C344.754 44.596 345.01 44.332 345.194 43.996C345.378 43.652 345.47 43.26 345.47 42.82C345.47 42.38 345.378 41.992 345.194 41.656C345.01 41.312 344.754 41.048 344.426 40.864C344.106 40.68 343.742 40.588 343.334 40.588C342.926 40.588 342.558 40.68 342.23 40.864C341.91 41.048 341.654 41.312 341.462 41.656C341.278 41.992 341.186 42.38 341.186 42.82C341.186 43.26 341.278 43.652 341.462 43.996C341.654 44.332 341.91 44.596 342.23 44.788C342.558 44.972 342.926 45.064 343.334 45.064ZM351.623 39.58C352.431 39.58 353.071 39.816 353.543 40.288C354.023 40.752 354.263 41.436 354.263 42.34V46H353.111V42.472C353.111 41.856 352.963 41.392 352.667 41.08C352.371 40.768 351.947 40.612 351.395 40.612C350.771 40.612 350.279 40.796 349.919 41.164C349.559 41.524 349.379 42.044 349.379 42.724V46H348.227V39.64H349.331V40.6C349.563 40.272 349.875 40.02 350.267 39.844C350.667 39.668 351.119 39.58 351.623 39.58ZM362.178 42.856C362.178 42.944 362.17 43.06 362.154 43.204H356.994C357.066 43.764 357.31 44.216 357.726 44.56C358.15 44.896 358.674 45.064 359.298 45.064C360.058 45.064 360.67 44.808 361.134 44.296L361.77 45.04C361.482 45.376 361.122 45.632 360.69 45.808C360.266 45.984 359.79 46.072 359.262 46.072C358.59 46.072 357.994 45.936 357.474 45.664C356.954 45.384 356.55 44.996 356.262 44.5C355.982 44.004 355.842 43.444 355.842 42.82C355.842 42.204 355.978 41.648 356.25 41.152C356.53 40.656 356.91 40.272 357.39 40C357.878 39.72 358.426 39.58 359.034 39.58C359.642 39.58 360.182 39.72 360.654 40C361.134 40.272 361.506 40.656 361.77 41.152C362.042 41.648 362.178 42.216 362.178 42.856ZM359.034 40.552C358.482 40.552 358.018 40.72 357.642 41.056C357.274 41.392 357.058 41.832 356.994 42.376H361.074C361.01 41.84 360.79 41.404 360.414 41.068C360.046 40.724 359.586 40.552 359.034 40.552Z" fill="#B1B1B1"/>
<path d="M273.709 41.466C274.441 41.67 275.017 42.042 275.437 42.582C275.857 43.11 276.067 43.782 276.067 44.598C276.067 45.69 275.653 46.53 274.825 47.118C274.009 47.706 272.815 48 271.243 48H265.231V35.4H270.883C272.323 35.4 273.433 35.688 274.213 36.264C275.005 36.84 275.401 37.638 275.401 38.658C275.401 39.318 275.245 39.888 274.933 40.368C274.633 40.848 274.225 41.214 273.709 41.466ZM267.031 36.858V40.89H270.721C271.645 40.89 272.353 40.722 272.845 40.386C273.349 40.038 273.601 39.534 273.601 38.874C273.601 38.214 273.349 37.716 272.845 37.38C272.353 37.032 271.645 36.858 270.721 36.858H267.031ZM271.171 46.542C272.191 46.542 272.959 46.374 273.475 46.038C273.991 45.702 274.249 45.174 274.249 44.454C274.249 43.05 273.223 42.348 271.171 42.348H267.031V46.542H271.171ZM282.688 48.108C281.74 48.108 280.888 47.898 280.132 47.478C279.376 47.058 278.782 46.482 278.35 45.75C277.93 45.006 277.72 44.166 277.72 43.23C277.72 42.294 277.93 41.46 278.35 40.728C278.782 39.984 279.376 39.408 280.132 39C280.888 38.58 281.74 38.37 282.688 38.37C283.636 38.37 284.482 38.58 285.226 39C285.982 39.408 286.57 39.984 286.99 40.728C287.422 41.46 287.638 42.294 287.638 43.23C287.638 44.166 287.422 45.006 286.99 45.75C286.57 46.482 285.982 47.058 285.226 47.478C284.482 47.898 283.636 48.108 282.688 48.108ZM282.688 46.596C283.3 46.596 283.846 46.458 284.326 46.182C284.818 45.894 285.202 45.498 285.478 44.994C285.754 44.478 285.892 43.89 285.892 43.23C285.892 42.57 285.754 41.988 285.478 41.484C285.202 40.968 284.818 40.572 284.326 40.296C283.846 40.02 283.3 39.882 282.688 39.882C282.076 39.882 281.524 40.02 281.032 40.296C280.552 40.572 280.168 40.968 279.88 41.484C279.604 41.988 279.466 42.57 279.466 43.23C279.466 43.89 279.604 44.478 279.88 44.994C280.168 45.498 280.552 45.894 281.032 46.182C281.524 46.458 282.076 46.596 282.688 46.596ZM295.086 38.37C296.01 38.37 296.838 38.574 297.57 38.982C298.302 39.39 298.872 39.96 299.28 40.692C299.7 41.424 299.91 42.27 299.91 43.23C299.91 44.19 299.7 45.042 299.28 45.786C298.872 46.518 298.302 47.088 297.57 47.496C296.838 47.904 296.01 48.108 295.086 48.108C294.378 48.108 293.73 47.97 293.142 47.694C292.554 47.418 292.068 47.016 291.684 46.488V48H290.028V34.644H291.756V39.9C292.14 39.396 292.62 39.018 293.196 38.766C293.772 38.502 294.402 38.37 295.086 38.37ZM294.942 46.596C295.554 46.596 296.1 46.458 296.58 46.182C297.072 45.894 297.456 45.498 297.732 44.994C298.02 44.478 298.164 43.89 298.164 43.23C298.164 42.57 298.02 41.988 297.732 41.484C297.456 40.968 297.072 40.572 296.58 40.296C296.1 40.02 295.554 39.882 294.942 39.882C294.342 39.882 293.796 40.02 293.304 40.296C292.812 40.572 292.428 40.968 292.152 41.484C291.876 41.988 291.738 42.57 291.738 43.23C291.738 43.89 291.876 44.478 292.152 44.994C292.428 45.498 292.812 45.894 293.304 46.182C293.796 46.458 294.342 46.596 294.942 46.596Z" fill="#B1B1B1"/>
<path d="M52.7168 44.85H46.0208L44.6348 48H42.7808L48.4868 35.4H50.2688L55.9928 48H54.1028L52.7168 44.85ZM52.0868 43.41L49.3688 37.236L46.6508 43.41H52.0868ZM57.6204 34.644H59.3484V48H57.6204V34.644ZM62.6478 38.46H64.3758V48H62.6478V38.46ZM63.5118 36.624C63.1758 36.624 62.8938 36.516 62.6658 36.3C62.4498 36.084 62.3418 35.82 62.3418 35.508C62.3418 35.196 62.4498 34.932 62.6658 34.716C62.8938 34.488 63.1758 34.374 63.5118 34.374C63.8478 34.374 64.1238 34.482 64.3398 34.698C64.5678 34.902 64.6818 35.16 64.6818 35.472C64.6818 35.796 64.5678 36.072 64.3398 36.3C64.1238 36.516 63.8478 36.624 63.5118 36.624ZM71.8331 48.108C70.8611 48.108 69.9911 47.898 69.2231 47.478C68.4671 47.058 67.8731 46.482 67.4411 45.75C67.0091 45.006 66.7931 44.166 66.7931 43.23C66.7931 42.294 67.0091 41.46 67.4411 40.728C67.8731 39.984 68.4671 39.408 69.2231 39C69.9911 38.58 70.8611 38.37 71.8331 38.37C72.6971 38.37 73.4651 38.544 74.1371 38.892C74.8211 39.24 75.3491 39.744 75.7211 40.404L74.4071 41.25C74.1071 40.794 73.7351 40.452 73.2911 40.224C72.8471 39.996 72.3551 39.882 71.8151 39.882C71.1911 39.882 70.6271 40.02 70.1231 40.296C69.6311 40.572 69.2411 40.968 68.9531 41.484C68.6771 41.988 68.5391 42.57 68.5391 43.23C68.5391 43.902 68.6771 44.496 68.9531 45.012C69.2411 45.516 69.6311 45.906 70.1231 46.182C70.6271 46.458 71.1911 46.596 71.8151 46.596C72.3551 46.596 72.8471 46.482 73.2911 46.254C73.7351 46.026 74.1071 45.684 74.4071 45.228L75.7211 46.056C75.3491 46.716 74.8211 47.226 74.1371 47.586C73.4651 47.934 72.6971 48.108 71.8331 48.108ZM86.4397 43.284C86.4397 43.416 86.4277 43.59 86.4037 43.806H78.6637C78.7717 44.646 79.1377 45.324 79.7617 45.84C80.3977 46.344 81.1837 46.596 82.1197 46.596C83.2597 46.596 84.1777 46.212 84.8737 45.444L85.8277 46.56C85.3957 47.064 84.8557 47.448 84.2077 47.712C83.5717 47.976 82.8577 48.108 82.0657 48.108C81.0577 48.108 80.1637 47.904 79.3837 47.496C78.6037 47.076 77.9977 46.494 77.5657 45.75C77.1457 45.006 76.9357 44.166 76.9357 43.23C76.9357 42.306 77.1397 41.472 77.5477 40.728C77.9677 39.984 78.5377 39.408 79.2577 39C79.9897 38.58 80.8117 38.37 81.7237 38.37C82.6357 38.37 83.4457 38.58 84.1537 39C84.8737 39.408 85.4317 39.984 85.8277 40.728C86.2357 41.472 86.4397 42.324 86.4397 43.284ZM81.7237 39.828C80.8957 39.828 80.1997 40.08 79.6357 40.584C79.0837 41.088 78.7597 41.748 78.6637 42.564H84.7837C84.6877 41.76 84.3577 41.106 83.7937 40.602C83.2417 40.086 82.5517 39.828 81.7237 39.828Z" fill="#FE812D"/>
<path d="M131.028 27.856C131.028 27.944 131.02 28.06 131.004 28.204H125.844C125.916 28.764 126.16 29.216 126.576 29.56C127 29.896 127.524 30.064 128.148 30.064C128.908 30.064 129.52 29.808 129.984 29.296L130.62 30.04C130.332 30.376 129.972 30.632 129.54 30.808C129.116 30.984 128.64 31.072 128.112 31.072C127.44 31.072 126.844 30.936 126.324 30.664C125.804 30.384 125.4 29.996 125.112 29.5C124.832 29.004 124.692 28.444 124.692 27.82C124.692 27.204 124.828 26.648 125.1 26.152C125.38 25.656 125.76 25.272 126.24 25C126.728 24.72 127.276 24.58 127.884 24.58C128.492 24.58 129.032 24.72 129.504 25C129.984 25.272 130.356 25.656 130.62 26.152C130.892 26.648 131.028 27.216 131.028 27.856ZM127.884 25.552C127.332 25.552 126.868 25.72 126.492 26.056C126.124 26.392 125.908 26.832 125.844 27.376H129.924C129.86 26.84 129.64 26.404 129.264 26.068C128.896 25.724 128.436 25.552 127.884 25.552ZM135.531 27.268L133.995 28.828V31H132.795V22.6H133.995V27.292L138.555 22.6H139.923L136.335 26.38L140.151 31H138.747L135.531 27.268ZM146.719 27.856C146.719 27.944 146.711 28.06 146.695 28.204H141.535C141.607 28.764 141.851 29.216 142.267 29.56C142.691 29.896 143.215 30.064 143.839 30.064C144.599 30.064 145.211 29.808 145.675 29.296L146.311 30.04C146.023 30.376 145.663 30.632 145.231 30.808C144.807 30.984 144.331 31.072 143.803 31.072C143.131 31.072 142.535 30.936 142.015 30.664C141.495 30.384 141.091 29.996 140.803 29.5C140.523 29.004 140.383 28.444 140.383 27.82C140.383 27.204 140.519 26.648 140.791 26.152C141.071 25.656 141.451 25.272 141.931 25C142.419 24.72 142.967 24.58 143.575 24.58C144.183 24.58 144.723 24.72 145.195 25C145.675 25.272 146.047 25.656 146.311 26.152C146.583 26.648 146.719 27.216 146.719 27.856ZM143.575 25.552C143.023 25.552 142.559 25.72 142.183 26.056C141.815 26.392 141.599 26.832 141.535 27.376H145.615C145.551 26.84 145.331 26.404 144.955 26.068C144.587 25.724 144.127 25.552 143.575 25.552ZM153.829 24.64L150.745 31.636C150.473 32.284 150.153 32.74 149.785 33.004C149.425 33.268 148.989 33.4 148.477 33.4C148.165 33.4 147.861 33.348 147.565 33.244C147.277 33.148 147.037 33.004 146.845 32.812L147.337 31.948C147.665 32.26 148.045 32.416 148.477 32.416C148.757 32.416 148.989 32.34 149.173 32.188C149.365 32.044 149.537 31.792 149.689 31.432L149.893 30.988L147.085 24.64H148.285L150.505 29.728L152.701 24.64H153.829ZM110.815 37.972C110.127 37.972 109.783 38.344 109.783 39.088V39.64H111.631V40.588H109.807V46H108.655V40.588H107.575V39.64H108.655V39.076C108.655 38.444 108.839 37.944 109.207 37.576C109.575 37.208 110.091 37.024 110.755 37.024C111.011 37.024 111.251 37.056 111.475 37.12C111.699 37.184 111.891 37.276 112.051 37.396L111.703 38.272C111.439 38.072 111.143 37.972 110.815 37.972ZM113.683 39.64H114.835V46H113.683V39.64ZM114.259 38.416C114.035 38.416 113.847 38.344 113.695 38.2C113.551 38.056 113.479 37.88 113.479 37.672C113.479 37.464 113.551 37.288 113.695 37.144C113.847 36.992 114.035 36.916 114.259 36.916C114.483 36.916 114.667 36.988 114.811 37.132C114.963 37.268 115.039 37.44 115.039 37.648C115.039 37.864 114.963 38.048 114.811 38.2C114.667 38.344 114.483 38.416 114.259 38.416ZM117.03 37.096H118.182V46H117.03V37.096ZM126.129 42.856C126.129 42.944 126.121 43.06 126.105 43.204H120.945C121.017 43.764 121.261 44.216 121.677 44.56C122.101 44.896 122.625 45.064 123.249 45.064C124.009 45.064 124.621 44.808 125.085 44.296L125.721 45.04C125.433 45.376 125.073 45.632 124.641 45.808C124.217 45.984 123.741 46.072 123.213 46.072C122.541 46.072 121.945 45.936 121.425 45.664C120.905 45.384 120.501 44.996 120.213 44.5C119.933 44.004 119.793 43.444 119.793 42.82C119.793 42.204 119.929 41.648 120.201 41.152C120.481 40.656 120.861 40.272 121.341 40C121.829 39.72 122.377 39.58 122.985 39.58C123.593 39.58 124.133 39.72 124.605 40C125.085 40.272 125.457 40.656 125.721 41.152C125.993 41.648 126.129 42.216 126.129 42.856ZM122.985 40.552C122.433 40.552 121.969 40.72 121.593 41.056C121.225 41.392 121.009 41.832 120.945 42.376H125.025C124.961 41.84 124.741 41.404 124.365 41.068C123.997 40.724 123.537 40.552 122.985 40.552ZM131.377 46.096C130.257 46.096 129.385 45.776 128.761 45.136C128.137 44.496 127.825 43.576 127.825 42.376V37.6H129.025V42.328C129.025 44.128 129.813 45.028 131.389 45.028C132.157 45.028 132.745 44.808 133.153 44.368C133.561 43.92 133.765 43.24 133.765 42.328V37.6H134.929V42.376C134.929 43.584 134.617 44.508 133.993 45.148C133.369 45.78 132.497 46.096 131.377 46.096ZM140.593 39.58C141.209 39.58 141.761 39.716 142.249 39.988C142.737 40.26 143.117 40.64 143.389 41.128C143.669 41.616 143.809 42.18 143.809 42.82C143.809 43.46 143.669 44.028 143.389 44.524C143.117 45.012 142.737 45.392 142.249 45.664C141.761 45.936 141.209 46.072 140.593 46.072C140.137 46.072 139.717 45.984 139.333 45.808C138.957 45.632 138.637 45.376 138.373 45.04V48.328H137.221V39.64H138.325V40.648C138.581 40.296 138.905 40.032 139.297 39.856C139.689 39.672 140.121 39.58 140.593 39.58ZM140.497 45.064C140.905 45.064 141.269 44.972 141.589 44.788C141.917 44.596 142.173 44.332 142.357 43.996C142.549 43.652 142.645 43.26 142.645 42.82C142.645 42.38 142.549 41.992 142.357 41.656C142.173 41.312 141.917 41.048 141.589 40.864C141.269 40.68 140.905 40.588 140.497 40.588C140.097 40.588 139.733 40.684 139.405 40.876C139.085 41.06 138.829 41.32 138.637 41.656C138.453 41.992 138.361 42.38 138.361 42.82C138.361 43.26 138.453 43.652 138.637 43.996C138.821 44.332 139.077 44.596 139.405 44.788C139.733 44.972 140.097 45.064 140.497 45.064ZM145.401 37.096H146.553V46H145.401V37.096ZM151.476 46.072C150.844 46.072 150.276 45.932 149.772 45.652C149.268 45.372 148.872 44.988 148.584 44.5C148.304 44.004 148.164 43.444 148.164 42.82C148.164 42.196 148.304 41.64 148.584 41.152C148.872 40.656 149.268 40.272 149.772 40C150.276 39.72 150.844 39.58 151.476 39.58C152.108 39.58 152.672 39.72 153.168 40C153.672 40.272 154.064 40.656 154.344 41.152C154.632 41.64 154.776 42.196 154.776 42.82C154.776 43.444 154.632 44.004 154.344 44.5C154.064 44.988 153.672 45.372 153.168 45.652C152.672 45.932 152.108 46.072 151.476 46.072ZM151.476 45.064C151.884 45.064 152.248 44.972 152.568 44.788C152.896 44.596 153.152 44.332 153.336 43.996C153.52 43.652 153.612 43.26 153.612 42.82C153.612 42.38 153.52 41.992 153.336 41.656C153.152 41.312 152.896 41.048 152.568 40.864C152.248 40.68 151.884 40.588 151.476 40.588C151.068 40.588 150.7 40.68 150.372 40.864C150.052 41.048 149.796 41.312 149.604 41.656C149.42 41.992 149.328 42.38 149.328 42.82C149.328 43.26 149.42 43.652 149.604 43.996C149.796 44.332 150.052 44.596 150.372 44.788C150.7 44.972 151.068 45.064 151.476 45.064ZM158.627 39.58C159.507 39.58 160.179 39.796 160.643 40.228C161.115 40.66 161.351 41.304 161.351 42.16V46H160.259V45.16C160.067 45.456 159.791 45.684 159.431 45.844C159.079 45.996 158.659 46.072 158.171 46.072C157.459 46.072 156.887 45.9 156.455 45.556C156.031 45.212 155.819 44.76 155.819 44.2C155.819 43.64 156.023 43.192 156.431 42.856C156.839 42.512 157.487 42.34 158.375 42.34H160.199V42.112C160.199 41.616 160.055 41.236 159.767 40.972C159.479 40.708 159.055 40.576 158.495 40.576C158.119 40.576 157.751 40.64 157.391 40.768C157.031 40.888 156.727 41.052 156.479 41.26L155.999 40.396C156.327 40.132 156.719 39.932 157.175 39.796C157.631 39.652 158.115 39.58 158.627 39.58ZM158.363 45.184C158.803 45.184 159.183 45.088 159.503 44.896C159.823 44.696 160.055 44.416 160.199 44.056V43.168H158.423C157.447 43.168 156.959 43.496 156.959 44.152C156.959 44.472 157.083 44.724 157.331 44.908C157.579 45.092 157.923 45.184 158.363 45.184ZM169.518 37.096V46H168.414V44.992C168.158 45.344 167.834 45.612 167.442 45.796C167.05 45.98 166.618 46.072 166.146 46.072C165.53 46.072 164.978 45.936 164.49 45.664C164.002 45.392 163.618 45.012 163.338 44.524C163.066 44.028 162.93 43.46 162.93 42.82C162.93 42.18 163.066 41.616 163.338 41.128C163.618 40.64 164.002 40.26 164.49 39.988C164.978 39.716 165.53 39.58 166.146 39.58C166.602 39.58 167.022 39.668 167.406 39.844C167.79 40.012 168.11 40.264 168.366 40.6V37.096H169.518ZM166.242 45.064C166.642 45.064 167.006 44.972 167.334 44.788C167.662 44.596 167.918 44.332 168.102 43.996C168.286 43.652 168.378 43.26 168.378 42.82C168.378 42.38 168.286 41.992 168.102 41.656C167.918 41.312 167.662 41.048 167.334 40.864C167.006 40.68 166.642 40.588 166.242 40.588C165.834 40.588 165.466 40.68 165.138 40.864C164.818 41.048 164.562 41.312 164.37 41.656C164.186 41.992 164.094 42.38 164.094 42.82C164.094 43.26 164.186 43.652 164.37 43.996C164.562 44.332 164.818 44.596 165.138 44.788C165.466 44.972 165.834 45.064 166.242 45.064ZM117.16 52.972C116.472 52.972 116.128 53.344 116.128 54.088V54.64H117.976V55.588H116.152V61H115V55.588H113.92V54.64H115V54.076C115 53.444 115.184 52.944 115.552 52.576C115.92 52.208 116.436 52.024 117.1 52.024C117.356 52.024 117.596 52.056 117.82 52.12C118.044 52.184 118.236 52.276 118.396 52.396L118.048 53.272C117.784 53.072 117.488 52.972 117.16 52.972ZM120.028 54.64H121.18V61H120.028V54.64ZM120.604 53.416C120.38 53.416 120.192 53.344 120.04 53.2C119.896 53.056 119.824 52.88 119.824 52.672C119.824 52.464 119.896 52.288 120.04 52.144C120.192 51.992 120.38 51.916 120.604 51.916C120.828 51.916 121.012 51.988 121.156 52.132C121.308 52.268 121.384 52.44 121.384 52.648C121.384 52.864 121.308 53.048 121.156 53.2C121.012 53.344 120.828 53.416 120.604 53.416ZM123.375 52.096H124.527V61H123.375V52.096ZM132.475 57.856C132.475 57.944 132.467 58.06 132.451 58.204H127.291C127.363 58.764 127.607 59.216 128.023 59.56C128.447 59.896 128.971 60.064 129.595 60.064C130.355 60.064 130.967 59.808 131.431 59.296L132.067 60.04C131.779 60.376 131.419 60.632 130.987 60.808C130.563 60.984 130.087 61.072 129.559 61.072C128.887 61.072 128.291 60.936 127.771 60.664C127.251 60.384 126.847 59.996 126.559 59.5C126.279 59.004 126.139 58.444 126.139 57.82C126.139 57.204 126.275 56.648 126.547 56.152C126.827 55.656 127.207 55.272 127.687 55C128.175 54.72 128.723 54.58 129.331 54.58C129.939 54.58 130.479 54.72 130.951 55C131.431 55.272 131.803 55.656 132.067 56.152C132.339 56.648 132.475 57.216 132.475 57.856ZM129.331 55.552C128.779 55.552 128.315 55.72 127.939 56.056C127.571 56.392 127.355 56.832 127.291 57.376H131.371C131.307 56.84 131.087 56.404 130.711 56.068C130.343 55.724 129.883 55.552 129.331 55.552ZM139.858 61L138.046 58.42C137.822 58.436 137.646 58.444 137.518 58.444H135.442V61H134.242V52.6H137.518C138.606 52.6 139.462 52.86 140.086 53.38C140.71 53.9 141.022 54.616 141.022 55.528C141.022 56.176 140.862 56.728 140.542 57.184C140.222 57.64 139.766 57.972 139.174 58.18L141.166 61H139.858ZM137.482 57.424C138.242 57.424 138.822 57.26 139.222 56.932C139.622 56.604 139.822 56.136 139.822 55.528C139.822 54.92 139.622 54.456 139.222 54.136C138.822 53.808 138.242 53.644 137.482 53.644H135.442V57.424H137.482ZM148.541 57.856C148.541 57.944 148.533 58.06 148.517 58.204H143.357C143.429 58.764 143.673 59.216 144.089 59.56C144.513 59.896 145.037 60.064 145.661 60.064C146.421 60.064 147.033 59.808 147.497 59.296L148.133 60.04C147.845 60.376 147.485 60.632 147.053 60.808C146.629 60.984 146.153 61.072 145.625 61.072C144.953 61.072 144.357 60.936 143.837 60.664C143.317 60.384 142.913 59.996 142.625 59.5C142.345 59.004 142.205 58.444 142.205 57.82C142.205 57.204 142.341 56.648 142.613 56.152C142.893 55.656 143.273 55.272 143.753 55C144.241 54.72 144.789 54.58 145.397 54.58C146.005 54.58 146.545 54.72 147.017 55C147.497 55.272 147.869 55.656 148.133 56.152C148.405 56.648 148.541 57.216 148.541 57.856ZM145.397 55.552C144.845 55.552 144.381 55.72 144.005 56.056C143.637 56.392 143.421 56.832 143.357 57.376H147.437C147.373 56.84 147.153 56.404 146.777 56.068C146.409 55.724 145.949 55.552 145.397 55.552ZM152.281 54.58C153.161 54.58 153.833 54.796 154.297 55.228C154.769 55.66 155.005 56.304 155.005 57.16V61H153.913V60.16C153.721 60.456 153.445 60.684 153.085 60.844C152.733 60.996 152.313 61.072 151.825 61.072C151.113 61.072 150.541 60.9 150.109 60.556C149.685 60.212 149.473 59.76 149.473 59.2C149.473 58.64 149.677 58.192 150.085 57.856C150.493 57.512 151.141 57.34 152.029 57.34H153.853V57.112C153.853 56.616 153.709 56.236 153.421 55.972C153.133 55.708 152.709 55.576 152.149 55.576C151.773 55.576 151.405 55.64 151.045 55.768C150.685 55.888 150.381 56.052 150.133 56.26L149.653 55.396C149.981 55.132 150.373 54.932 150.829 54.796C151.285 54.652 151.769 54.58 152.281 54.58ZM152.017 60.184C152.457 60.184 152.837 60.088 153.157 59.896C153.477 59.696 153.709 59.416 153.853 59.056V58.168H152.077C151.101 58.168 150.613 58.496 150.613 59.152C150.613 59.472 150.737 59.724 150.985 59.908C151.233 60.092 151.577 60.184 152.017 60.184ZM163.172 52.096V61H162.068V59.992C161.812 60.344 161.488 60.612 161.096 60.796C160.704 60.98 160.272 61.072 159.8 61.072C159.184 61.072 158.632 60.936 158.144 60.664C157.656 60.392 157.272 60.012 156.992 59.524C156.72 59.028 156.584 58.46 156.584 57.82C156.584 57.18 156.72 56.616 156.992 56.128C157.272 55.64 157.656 55.26 158.144 54.988C158.632 54.716 159.184 54.58 159.8 54.58C160.256 54.58 160.676 54.668 161.06 54.844C161.444 55.012 161.764 55.264 162.02 55.6V52.096H163.172ZM159.896 60.064C160.296 60.064 160.66 59.972 160.988 59.788C161.316 59.596 161.572 59.332 161.756 58.996C161.94 58.652 162.032 58.26 162.032 57.82C162.032 57.38 161.94 56.992 161.756 56.656C161.572 56.312 161.316 56.048 160.988 55.864C160.66 55.68 160.296 55.588 159.896 55.588C159.488 55.588 159.12 55.68 158.792 55.864C158.472 56.048 158.216 56.312 158.024 56.656C157.84 56.992 157.748 57.38 157.748 57.82C157.748 58.26 157.84 58.652 158.024 58.996C158.216 59.332 158.472 59.596 158.792 59.788C159.12 59.972 159.488 60.064 159.896 60.064Z" fill="#222222"/>
<path d="M87 60C87 59.4477 86.5523 59 86 59H77C76.4477 59 76 59.4477 76 60C76 60.5523 76.4477 61 77 61H85V69C85 69.5523 85.4477 70 86 70C86.5523 70 87 69.5523 87 69V60ZM86.2502 61.164L86.7071 60.7071L85.2929 59.2929L84.836 59.7498L86.2502 61.164ZM43.2929 60.7071L43.7498 61.164L45.164 59.7498L44.7071 59.2929L43.2929 60.7071ZM84.836 59.7498C73.8809 70.7049 56.1191 70.7049 45.164 59.7498L43.7498 61.164C55.4859 72.9002 74.5141 72.9002 86.2502 61.164L84.836 59.7498Z" fill="#FE812D"/>
<path d="M44 25C43.4477 25 43 24.5523 43 24V15C43 14.4477 43.4477 14 44 14C44.5523 14 45 14.4477 45 15V23H53C53.5523 23 54 23.4477 54 24C54 24.5523 53.5523 25 53 25H44ZM86.2502 22.836L86.7071 23.2929L85.2929 24.7071L84.836 24.2502L86.2502 22.836ZM43.2929 23.2929L43.7498 22.836L45.164 24.2502L44.7071 24.7071L43.2929 23.2929ZM84.836 24.2502C73.8809 13.2951 56.1191 13.2951 45.164 24.2502L43.7498 22.836C55.4859 11.0998 74.5141 11.0998 86.2502 22.836L84.836 24.2502Z" fill="#FE812D"/>
</svg>
