<svg width="634" height="84" viewBox="0 0 634 84" fill="none" xmlns="http://www.w3.org/2000/svg">
<rect width="634" height="84" rx="12" fill="#F5F5F5"/>
<path d="M466.347 48.144C465.087 48.144 463.947 47.868 462.927 47.316C461.919 46.752 461.127 45.984 460.551 45.012C459.975 44.028 459.687 42.924 459.687 41.7C459.687 40.476 459.975 39.378 460.551 38.406C461.127 37.422 461.925 36.654 462.945 36.102C463.965 35.538 465.105 35.256 466.365 35.256C467.349 35.256 468.249 35.424 469.065 35.76C469.881 36.084 470.577 36.57 471.153 37.218L469.983 38.352C469.035 37.356 467.853 36.858 466.437 36.858C465.501 36.858 464.655 37.068 463.899 37.488C463.143 37.908 462.549 38.49 462.117 39.234C461.697 39.966 461.487 40.788 461.487 41.7C461.487 42.612 461.697 43.44 462.117 44.184C462.549 44.916 463.143 45.492 463.899 45.912C464.655 46.332 465.501 46.542 466.437 46.542C467.841 46.542 469.023 46.038 469.983 45.03L471.153 46.164C470.577 46.812 469.875 47.304 469.047 47.64C468.231 47.976 467.331 48.144 466.347 48.144ZM478.563 38.37C479.775 38.37 480.735 38.724 481.443 39.432C482.163 40.128 482.523 41.154 482.523 42.51V48H480.795V42.708C480.795 41.784 480.573 41.088 480.129 40.62C479.685 40.152 479.049 39.918 478.221 39.918C477.285 39.918 476.547 40.194 476.007 40.746C475.467 41.286 475.197 42.066 475.197 43.086V48H473.469V34.644H475.197V39.81C475.557 39.354 476.025 39 476.601 38.748C477.189 38.496 477.843 38.37 478.563 38.37ZM489.195 38.37C490.515 38.37 491.523 38.694 492.219 39.342C492.927 39.99 493.281 40.956 493.281 42.24V48H491.643V46.74C491.355 47.184 490.941 47.526 490.401 47.766C489.873 47.994 489.243 48.108 488.511 48.108C487.443 48.108 486.585 47.85 485.937 47.334C485.301 46.818 484.983 46.14 484.983 45.3C484.983 44.46 485.289 43.788 485.901 43.284C486.513 42.768 487.485 42.51 488.817 42.51H491.553V42.168C491.553 41.424 491.337 40.854 490.905 40.458C490.473 40.062 489.837 39.864 488.997 39.864C488.433 39.864 487.881 39.96 487.341 40.152C486.801 40.332 486.345 40.578 485.973 40.89L485.253 39.594C485.745 39.198 486.333 38.898 487.017 38.694C487.701 38.478 488.427 38.37 489.195 38.37ZM488.799 46.776C489.459 46.776 490.029 46.632 490.509 46.344C490.989 46.044 491.337 45.624 491.553 45.084V43.752H488.889C487.425 43.752 486.693 44.244 486.693 45.228C486.693 45.708 486.879 46.086 487.251 46.362C487.623 46.638 488.139 46.776 488.799 46.776ZM498.135 40.062C498.435 39.51 498.879 39.09 499.467 38.802C500.055 38.514 500.769 38.37 501.609 38.37V40.044C501.513 40.032 501.381 40.026 501.213 40.026C500.277 40.026 499.539 40.308 498.999 40.872C498.471 41.424 498.207 42.216 498.207 43.248V48H496.479V38.46H498.135V40.062ZM503.739 34.644H505.467V48H503.739V34.644ZM508.766 38.46H510.494V48H508.766V38.46ZM509.63 36.624C509.294 36.624 509.012 36.516 508.784 36.3C508.568 36.084 508.46 35.82 508.46 35.508C508.46 35.196 508.568 34.932 508.784 34.716C509.012 34.488 509.294 34.374 509.63 34.374C509.966 34.374 510.242 34.482 510.458 34.698C510.686 34.902 510.8 35.16 510.8 35.472C510.8 35.796 510.686 36.072 510.458 36.3C510.242 36.516 509.966 36.624 509.63 36.624ZM522.415 43.284C522.415 43.416 522.403 43.59 522.379 43.806H514.639C514.747 44.646 515.113 45.324 515.737 45.84C516.373 46.344 517.159 46.596 518.095 46.596C519.235 46.596 520.153 46.212 520.849 45.444L521.803 46.56C521.371 47.064 520.831 47.448 520.183 47.712C519.547 47.976 518.833 48.108 518.041 48.108C517.033 48.108 516.139 47.904 515.359 47.496C514.579 47.076 513.973 46.494 513.541 45.75C513.121 45.006 512.911 44.166 512.911 43.23C512.911 42.306 513.115 41.472 513.523 40.728C513.943 39.984 514.513 39.408 515.233 39C515.965 38.58 516.787 38.37 517.699 38.37C518.611 38.37 519.421 38.58 520.129 39C520.849 39.408 521.407 39.984 521.803 40.728C522.211 41.472 522.415 42.324 522.415 43.284ZM517.699 39.828C516.871 39.828 516.175 40.08 515.611 40.584C515.059 41.088 514.735 41.748 514.639 42.564H520.759C520.663 41.76 520.333 41.106 519.769 40.602C519.217 40.086 518.527 39.828 517.699 39.828Z" fill="#FE812D"/>
<path d="M137.717 43.85H131.021L129.635 47H127.781L133.487 34.4H135.269L140.993 47H139.103L137.717 43.85ZM137.087 42.41L134.369 36.236L131.651 42.41H137.087ZM142.62 33.644H144.348V47H142.62V33.644ZM147.648 37.46H149.376V47H147.648V37.46ZM148.512 35.624C148.176 35.624 147.894 35.516 147.666 35.3C147.45 35.084 147.342 34.82 147.342 34.508C147.342 34.196 147.45 33.932 147.666 33.716C147.894 33.488 148.176 33.374 148.512 33.374C148.848 33.374 149.124 33.482 149.34 33.698C149.568 33.902 149.682 34.16 149.682 34.472C149.682 34.796 149.568 35.072 149.34 35.3C149.124 35.516 148.848 35.624 148.512 35.624ZM156.833 47.108C155.861 47.108 154.991 46.898 154.223 46.478C153.467 46.058 152.873 45.482 152.441 44.75C152.009 44.006 151.793 43.166 151.793 42.23C151.793 41.294 152.009 40.46 152.441 39.728C152.873 38.984 153.467 38.408 154.223 38C154.991 37.58 155.861 37.37 156.833 37.37C157.697 37.37 158.465 37.544 159.137 37.892C159.821 38.24 160.349 38.744 160.721 39.404L159.407 40.25C159.107 39.794 158.735 39.452 158.291 39.224C157.847 38.996 157.355 38.882 156.815 38.882C156.191 38.882 155.627 39.02 155.123 39.296C154.631 39.572 154.241 39.968 153.953 40.484C153.677 40.988 153.539 41.57 153.539 42.23C153.539 42.902 153.677 43.496 153.953 44.012C154.241 44.516 154.631 44.906 155.123 45.182C155.627 45.458 156.191 45.596 156.815 45.596C157.355 45.596 157.847 45.482 158.291 45.254C158.735 45.026 159.107 44.684 159.407 44.228L160.721 45.056C160.349 45.716 159.821 46.226 159.137 46.586C158.465 46.934 157.697 47.108 156.833 47.108ZM171.44 42.284C171.44 42.416 171.428 42.59 171.404 42.806H163.664C163.772 43.646 164.138 44.324 164.762 44.84C165.398 45.344 166.184 45.596 167.12 45.596C168.26 45.596 169.178 45.212 169.874 44.444L170.828 45.56C170.396 46.064 169.856 46.448 169.208 46.712C168.572 46.976 167.858 47.108 167.066 47.108C166.058 47.108 165.164 46.904 164.384 46.496C163.604 46.076 162.998 45.494 162.566 44.75C162.146 44.006 161.936 43.166 161.936 42.23C161.936 41.306 162.14 40.472 162.548 39.728C162.968 38.984 163.538 38.408 164.258 38C164.99 37.58 165.812 37.37 166.724 37.37C167.636 37.37 168.446 37.58 169.154 38C169.874 38.408 170.432 38.984 170.828 39.728C171.236 40.472 171.44 41.324 171.44 42.284ZM166.724 38.828C165.896 38.828 165.2 39.08 164.636 39.584C164.084 40.088 163.76 40.748 163.664 41.564H169.784C169.688 40.76 169.358 40.106 168.794 39.602C168.242 39.086 167.552 38.828 166.724 38.828Z" fill="#FE812D"/>
<path d="M64.0275 18.856C64.0275 18.944 64.0195 19.06 64.0035 19.204H58.8435C58.9155 19.764 59.1595 20.216 59.5755 20.56C59.9995 20.896 60.5235 21.064 61.1475 21.064C61.9075 21.064 62.5195 20.808 62.9835 20.296L63.6195 21.04C63.3315 21.376 62.9715 21.632 62.5395 21.808C62.1155 21.984 61.6395 22.072 61.1115 22.072C60.4395 22.072 59.8435 21.936 59.3235 21.664C58.8035 21.384 58.3995 20.996 58.1115 20.5C57.8315 20.004 57.6915 19.444 57.6915 18.82C57.6915 18.204 57.8275 17.648 58.0995 17.152C58.3795 16.656 58.7595 16.272 59.2395 16C59.7275 15.72 60.2755 15.58 60.8835 15.58C61.4915 15.58 62.0315 15.72 62.5035 16C62.9835 16.272 63.3555 16.656 63.6195 17.152C63.8915 17.648 64.0275 18.216 64.0275 18.856ZM60.8835 16.552C60.3315 16.552 59.8675 16.72 59.4915 17.056C59.1235 17.392 58.9075 17.832 58.8435 18.376H62.9235C62.8595 17.84 62.6395 17.404 62.2635 17.068C61.8955 16.724 61.4355 16.552 60.8835 16.552ZM68.5312 18.268L66.9952 19.828V22H65.7952V13.6H66.9952V18.292L71.5552 13.6H72.9232L69.3352 17.38L73.1512 22H71.7472L68.5312 18.268ZM79.7189 18.856C79.7189 18.944 79.7109 19.06 79.6949 19.204H74.5349C74.6069 19.764 74.8509 20.216 75.2669 20.56C75.6909 20.896 76.2149 21.064 76.8389 21.064C77.5989 21.064 78.2109 20.808 78.6749 20.296L79.3109 21.04C79.0229 21.376 78.6629 21.632 78.2309 21.808C77.8069 21.984 77.3309 22.072 76.8029 22.072C76.1309 22.072 75.5349 21.936 75.0149 21.664C74.4949 21.384 74.0909 20.996 73.8029 20.5C73.5229 20.004 73.3829 19.444 73.3829 18.82C73.3829 18.204 73.5189 17.648 73.7909 17.152C74.0709 16.656 74.4509 16.272 74.9309 16C75.4189 15.72 75.9669 15.58 76.5749 15.58C77.1829 15.58 77.7229 15.72 78.1949 16C78.6749 16.272 79.0469 16.656 79.3109 17.152C79.5829 17.648 79.7189 18.216 79.7189 18.856ZM76.5749 16.552C76.0229 16.552 75.5589 16.72 75.1829 17.056C74.8149 17.392 74.5989 17.832 74.5349 18.376H78.6149C78.5509 17.84 78.3309 17.404 77.9549 17.068C77.5869 16.724 77.1269 16.552 76.5749 16.552ZM86.8294 15.64L83.7454 22.636C83.4734 23.284 83.1534 23.74 82.7854 24.004C82.4254 24.268 81.9894 24.4 81.4774 24.4C81.1654 24.4 80.8614 24.348 80.5654 24.244C80.2774 24.148 80.0374 24.004 79.8454 23.812L80.3374 22.948C80.6654 23.26 81.0454 23.416 81.4774 23.416C81.7574 23.416 81.9894 23.34 82.1734 23.188C82.3654 23.044 82.5374 22.792 82.6894 22.432L82.8934 21.988L80.0854 15.64H81.2854L83.5054 20.728L85.7014 15.64H86.8294ZM43.8145 28.972C43.1265 28.972 42.7825 29.344 42.7825 30.088V30.64H44.6305V31.588H42.8065V37H41.6545V31.588H40.5745V30.64H41.6545V30.076C41.6545 29.444 41.8385 28.944 42.2065 28.576C42.5745 28.208 43.0905 28.024 43.7545 28.024C44.0105 28.024 44.2505 28.056 44.4745 28.12C44.6985 28.184 44.8905 28.276 45.0505 28.396L44.7025 29.272C44.4385 29.072 44.1425 28.972 43.8145 28.972ZM46.6825 30.64H47.8345V37H46.6825V30.64ZM47.2585 29.416C47.0345 29.416 46.8465 29.344 46.6945 29.2C46.5505 29.056 46.4785 28.88 46.4785 28.672C46.4785 28.464 46.5505 28.288 46.6945 28.144C46.8465 27.992 47.0345 27.916 47.2585 27.916C47.4825 27.916 47.6665 27.988 47.8105 28.132C47.9625 28.268 48.0385 28.44 48.0385 28.648C48.0385 28.864 47.9625 29.048 47.8105 29.2C47.6665 29.344 47.4825 29.416 47.2585 29.416ZM50.0295 28.096H51.1815V37H50.0295V28.096ZM59.1291 33.856C59.1291 33.944 59.1211 34.06 59.1051 34.204H53.9451C54.0171 34.764 54.2611 35.216 54.6771 35.56C55.1011 35.896 55.6251 36.064 56.2491 36.064C57.0091 36.064 57.6211 35.808 58.0851 35.296L58.7211 36.04C58.4331 36.376 58.0731 36.632 57.6411 36.808C57.2171 36.984 56.7411 37.072 56.2131 37.072C55.5411 37.072 54.9451 36.936 54.4251 36.664C53.9051 36.384 53.5011 35.996 53.2131 35.5C52.9331 35.004 52.7931 34.444 52.7931 33.82C52.7931 33.204 52.9291 32.648 53.2011 32.152C53.4811 31.656 53.8611 31.272 54.3411 31C54.8291 30.72 55.3771 30.58 55.9851 30.58C56.5931 30.58 57.1331 30.72 57.6051 31C58.0851 31.272 58.4571 31.656 58.7211 32.152C58.9931 32.648 59.1291 33.216 59.1291 33.856ZM55.9851 31.552C55.4331 31.552 54.9691 31.72 54.5931 32.056C54.2251 32.392 54.0091 32.832 53.9451 33.376H58.0251C57.9611 32.84 57.7411 32.404 57.3651 32.068C56.9971 31.724 56.5371 31.552 55.9851 31.552ZM64.3767 37.096C63.2567 37.096 62.3847 36.776 61.7607 36.136C61.1367 35.496 60.8247 34.576 60.8247 33.376V28.6H62.0247V33.328C62.0247 35.128 62.8127 36.028 64.3887 36.028C65.1567 36.028 65.7447 35.808 66.1527 35.368C66.5607 34.92 66.7647 34.24 66.7647 33.328V28.6H67.9287V33.376C67.9287 34.584 67.6167 35.508 66.9927 36.148C66.3687 36.78 65.4967 37.096 64.3767 37.096ZM73.5929 30.58C74.2089 30.58 74.7609 30.716 75.2489 30.988C75.7369 31.26 76.1169 31.64 76.3889 32.128C76.6689 32.616 76.8089 33.18 76.8089 33.82C76.8089 34.46 76.6689 35.028 76.3889 35.524C76.1169 36.012 75.7369 36.392 75.2489 36.664C74.7609 36.936 74.2089 37.072 73.5929 37.072C73.1369 37.072 72.7169 36.984 72.3329 36.808C71.9569 36.632 71.6369 36.376 71.3729 36.04V39.328H70.2209V30.64H71.3249V31.648C71.5809 31.296 71.9049 31.032 72.2969 30.856C72.6889 30.672 73.1209 30.58 73.5929 30.58ZM73.4969 36.064C73.9049 36.064 74.2689 35.972 74.5889 35.788C74.9169 35.596 75.1729 35.332 75.3569 34.996C75.5489 34.652 75.6449 34.26 75.6449 33.82C75.6449 33.38 75.5489 32.992 75.3569 32.656C75.1729 32.312 74.9169 32.048 74.5889 31.864C74.2689 31.68 73.9049 31.588 73.4969 31.588C73.0969 31.588 72.7329 31.684 72.4049 31.876C72.0849 32.06 71.8289 32.32 71.6369 32.656C71.4529 32.992 71.3609 33.38 71.3609 33.82C71.3609 34.26 71.4529 34.652 71.6369 34.996C71.8209 35.332 72.0769 35.596 72.4049 35.788C72.7329 35.972 73.0969 36.064 73.4969 36.064ZM78.4006 28.096H79.5526V37H78.4006V28.096ZM84.4762 37.072C83.8442 37.072 83.2762 36.932 82.7722 36.652C82.2682 36.372 81.8722 35.988 81.5842 35.5C81.3042 35.004 81.1642 34.444 81.1642 33.82C81.1642 33.196 81.3042 32.64 81.5842 32.152C81.8722 31.656 82.2682 31.272 82.7722 31C83.2762 30.72 83.8442 30.58 84.4762 30.58C85.1082 30.58 85.6722 30.72 86.1682 31C86.6722 31.272 87.0642 31.656 87.3442 32.152C87.6322 32.64 87.7762 33.196 87.7762 33.82C87.7762 34.444 87.6322 35.004 87.3442 35.5C87.0642 35.988 86.6722 36.372 86.1682 36.652C85.6722 36.932 85.1082 37.072 84.4762 37.072ZM84.4762 36.064C84.8842 36.064 85.2482 35.972 85.5682 35.788C85.8962 35.596 86.1522 35.332 86.3362 34.996C86.5202 34.652 86.6122 34.26 86.6122 33.82C86.6122 33.38 86.5202 32.992 86.3362 32.656C86.1522 32.312 85.8962 32.048 85.5682 31.864C85.2482 31.68 84.8842 31.588 84.4762 31.588C84.0682 31.588 83.7002 31.68 83.3722 31.864C83.0522 32.048 82.7962 32.312 82.6042 32.656C82.4202 32.992 82.3282 33.38 82.3282 33.82C82.3282 34.26 82.4202 34.652 82.6042 34.996C82.7962 35.332 83.0522 35.596 83.3722 35.788C83.7002 35.972 84.0682 36.064 84.4762 36.064ZM91.6268 30.58C92.5068 30.58 93.1788 30.796 93.6428 31.228C94.1148 31.66 94.3508 32.304 94.3508 33.16V37H93.2588V36.16C93.0668 36.456 92.7908 36.684 92.4308 36.844C92.0788 36.996 91.6588 37.072 91.1708 37.072C90.4588 37.072 89.8868 36.9 89.4548 36.556C89.0308 36.212 88.8188 35.76 88.8188 35.2C88.8188 34.64 89.0228 34.192 89.4308 33.856C89.8388 33.512 90.4868 33.34 91.3748 33.34H93.1988V33.112C93.1988 32.616 93.0548 32.236 92.7668 31.972C92.4788 31.708 92.0548 31.576 91.4948 31.576C91.1188 31.576 90.7508 31.64 90.3908 31.768C90.0308 31.888 89.7268 32.052 89.4788 32.26L88.9988 31.396C89.3268 31.132 89.7188 30.932 90.1748 30.796C90.6308 30.652 91.1148 30.58 91.6268 30.58ZM91.3628 36.184C91.8028 36.184 92.1828 36.088 92.5028 35.896C92.8228 35.696 93.0548 35.416 93.1988 35.056V34.168H91.4228C90.4468 34.168 89.9588 34.496 89.9588 35.152C89.9588 35.472 90.0828 35.724 90.3308 35.908C90.5788 36.092 90.9228 36.184 91.3628 36.184ZM102.518 28.096V37H101.414V35.992C101.158 36.344 100.834 36.612 100.442 36.796C100.05 36.98 99.6178 37.072 99.1458 37.072C98.5298 37.072 97.9778 36.936 97.4898 36.664C97.0018 36.392 96.6178 36.012 96.3378 35.524C96.0658 35.028 95.9298 34.46 95.9298 33.82C95.9298 33.18 96.0658 32.616 96.3378 32.128C96.6178 31.64 97.0018 31.26 97.4898 30.988C97.9778 30.716 98.5298 30.58 99.1458 30.58C99.6018 30.58 100.022 30.668 100.406 30.844C100.79 31.012 101.11 31.264 101.366 31.6V28.096H102.518ZM99.2418 36.064C99.6418 36.064 100.006 35.972 100.334 35.788C100.662 35.596 100.918 35.332 101.102 34.996C101.286 34.652 101.378 34.26 101.378 33.82C101.378 33.38 101.286 32.992 101.102 32.656C100.918 32.312 100.662 32.048 100.334 31.864C100.006 31.68 99.6418 31.588 99.2418 31.588C98.8338 31.588 98.4658 31.68 98.1378 31.864C97.8178 32.048 97.5618 32.312 97.3698 32.656C97.1858 32.992 97.0938 33.38 97.0938 33.82C97.0938 34.26 97.1858 34.652 97.3698 34.996C97.5618 35.332 97.8178 35.596 98.1378 35.788C98.4658 35.972 98.8338 36.064 99.2418 36.064ZM50.1602 43.972C49.4722 43.972 49.1282 44.344 49.1282 45.088V45.64H50.9762V46.588H49.1522V52H48.0002V46.588H46.9202V45.64H48.0002V45.076C48.0002 44.444 48.1842 43.944 48.5522 43.576C48.9202 43.208 49.4362 43.024 50.1002 43.024C50.3562 43.024 50.5962 43.056 50.8202 43.12C51.0442 43.184 51.2362 43.276 51.3962 43.396L51.0482 44.272C50.7842 44.072 50.4882 43.972 50.1602 43.972ZM53.0282 45.64H54.1802V52H53.0282V45.64ZM53.6042 44.416C53.3802 44.416 53.1922 44.344 53.0402 44.2C52.8962 44.056 52.8242 43.88 52.8242 43.672C52.8242 43.464 52.8962 43.288 53.0402 43.144C53.1922 42.992 53.3802 42.916 53.6042 42.916C53.8282 42.916 54.0122 42.988 54.1562 43.132C54.3082 43.268 54.3842 43.44 54.3842 43.648C54.3842 43.864 54.3082 44.048 54.1562 44.2C54.0122 44.344 53.8282 44.416 53.6042 44.416ZM56.3752 43.096H57.5272V52H56.3752V43.096ZM65.4748 48.856C65.4748 48.944 65.4668 49.06 65.4508 49.204H60.2908C60.3628 49.764 60.6068 50.216 61.0228 50.56C61.4468 50.896 61.9708 51.064 62.5948 51.064C63.3548 51.064 63.9668 50.808 64.4308 50.296L65.0668 51.04C64.7788 51.376 64.4188 51.632 63.9868 51.808C63.5628 51.984 63.0868 52.072 62.5588 52.072C61.8868 52.072 61.2908 51.936 60.7708 51.664C60.2508 51.384 59.8468 50.996 59.5588 50.5C59.2788 50.004 59.1388 49.444 59.1388 48.82C59.1388 48.204 59.2748 47.648 59.5468 47.152C59.8268 46.656 60.2068 46.272 60.6868 46C61.1748 45.72 61.7228 45.58 62.3308 45.58C62.9388 45.58 63.4788 45.72 63.9508 46C64.4308 46.272 64.8028 46.656 65.0668 47.152C65.3388 47.648 65.4748 48.216 65.4748 48.856ZM62.3308 46.552C61.7788 46.552 61.3148 46.72 60.9388 47.056C60.5708 47.392 60.3548 47.832 60.2908 48.376H64.3708C64.3068 47.84 64.0868 47.404 63.7108 47.068C63.3428 46.724 62.8828 46.552 62.3308 46.552ZM72.8584 52L71.0464 49.42C70.8224 49.436 70.6464 49.444 70.5184 49.444H68.4424V52H67.2424V43.6H70.5184C71.6064 43.6 72.4624 43.86 73.0864 44.38C73.7104 44.9 74.0224 45.616 74.0224 46.528C74.0224 47.176 73.8624 47.728 73.5424 48.184C73.2224 48.64 72.7664 48.972 72.1744 49.18L74.1664 52H72.8584ZM70.4824 48.424C71.2424 48.424 71.8224 48.26 72.2224 47.932C72.6224 47.604 72.8224 47.136 72.8224 46.528C72.8224 45.92 72.6224 45.456 72.2224 45.136C71.8224 44.808 71.2424 44.644 70.4824 44.644H68.4424V48.424H70.4824ZM81.5412 48.856C81.5412 48.944 81.5332 49.06 81.5172 49.204H76.3572C76.4292 49.764 76.6732 50.216 77.0892 50.56C77.5132 50.896 78.0372 51.064 78.6612 51.064C79.4212 51.064 80.0332 50.808 80.4972 50.296L81.1332 51.04C80.8452 51.376 80.4852 51.632 80.0532 51.808C79.6292 51.984 79.1532 52.072 78.6252 52.072C77.9532 52.072 77.3572 51.936 76.8372 51.664C76.3172 51.384 75.9132 50.996 75.6252 50.5C75.3452 50.004 75.2052 49.444 75.2052 48.82C75.2052 48.204 75.3412 47.648 75.6132 47.152C75.8932 46.656 76.2732 46.272 76.7532 46C77.2412 45.72 77.7892 45.58 78.3972 45.58C79.0052 45.58 79.5452 45.72 80.0172 46C80.4972 46.272 80.8692 46.656 81.1332 47.152C81.4052 47.648 81.5412 48.216 81.5412 48.856ZM78.3972 46.552C77.8452 46.552 77.3812 46.72 77.0052 47.056C76.6372 47.392 76.4212 47.832 76.3572 48.376H80.4372C80.3732 47.84 80.1532 47.404 79.7772 47.068C79.4092 46.724 78.9492 46.552 78.3972 46.552ZM85.281 45.58C86.161 45.58 86.833 45.796 87.297 46.228C87.769 46.66 88.005 47.304 88.005 48.16V52H86.913V51.16C86.721 51.456 86.445 51.684 86.085 51.844C85.733 51.996 85.313 52.072 84.825 52.072C84.113 52.072 83.541 51.9 83.109 51.556C82.685 51.212 82.473 50.76 82.473 50.2C82.473 49.64 82.677 49.192 83.085 48.856C83.493 48.512 84.141 48.34 85.029 48.34H86.853V48.112C86.853 47.616 86.709 47.236 86.421 46.972C86.133 46.708 85.709 46.576 85.149 46.576C84.773 46.576 84.405 46.64 84.045 46.768C83.685 46.888 83.381 47.052 83.133 47.26L82.653 46.396C82.981 46.132 83.373 45.932 83.829 45.796C84.285 45.652 84.769 45.58 85.281 45.58ZM85.017 51.184C85.457 51.184 85.837 51.088 86.157 50.896C86.477 50.696 86.709 50.416 86.853 50.056V49.168H85.077C84.101 49.168 83.613 49.496 83.613 50.152C83.613 50.472 83.737 50.724 83.985 50.908C84.233 51.092 84.577 51.184 85.017 51.184ZM96.1721 43.096V52H95.0681V50.992C94.8121 51.344 94.4881 51.612 94.0961 51.796C93.7041 51.98 93.2721 52.072 92.8001 52.072C92.1841 52.072 91.6321 51.936 91.1441 51.664C90.6561 51.392 90.2721 51.012 89.9921 50.524C89.7201 50.028 89.5841 49.46 89.5841 48.82C89.5841 48.18 89.7201 47.616 89.9921 47.128C90.2721 46.64 90.6561 46.26 91.1441 45.988C91.6321 45.716 92.1841 45.58 92.8001 45.58C93.2561 45.58 93.6761 45.668 94.0601 45.844C94.4441 46.012 94.7641 46.264 95.0201 46.6V43.096H96.1721ZM92.8961 51.064C93.2961 51.064 93.6601 50.972 93.9881 50.788C94.3161 50.596 94.5721 50.332 94.7561 49.996C94.9401 49.652 95.0321 49.26 95.0321 48.82C95.0321 48.38 94.9401 47.992 94.7561 47.656C94.5721 47.312 94.3161 47.048 93.9881 46.864C93.6601 46.68 93.2961 46.588 92.8961 46.588C92.4881 46.588 92.1201 46.68 91.7921 46.864C91.4721 47.048 91.2161 47.312 91.0241 47.656C90.8401 47.992 90.7481 48.38 90.7481 48.82C90.7481 49.26 90.8401 49.652 91.0241 49.996C91.2161 50.332 91.4721 50.596 91.7921 50.788C92.1201 50.972 92.4881 51.064 92.8961 51.064ZM52.3634 58.972C51.6754 58.972 51.3314 59.344 51.3314 60.088V60.64H53.1794V61.588H51.3554V67H50.2034V61.588H49.1234V60.64H50.2034V60.076C50.2034 59.444 50.3874 58.944 50.7554 58.576C51.1234 58.208 51.6394 58.024 52.3034 58.024C52.5594 58.024 52.7994 58.056 53.0234 58.12C53.2474 58.184 53.4394 58.276 53.5994 58.396L53.2514 59.272C52.9874 59.072 52.6914 58.972 52.3634 58.972ZM54.2714 58.096H55.4234V67H54.2714V58.096ZM63.3654 63.856C63.3654 63.944 63.3574 64.06 63.3414 64.204H58.1814C58.2534 64.764 58.4974 65.216 58.9134 65.56C59.3374 65.896 59.8614 66.064 60.4854 66.064C61.2454 66.064 61.8574 65.808 62.3214 65.296L62.9574 66.04C62.6694 66.376 62.3094 66.632 61.8774 66.808C61.4534 66.984 60.9774 67.072 60.4494 67.072C59.7774 67.072 59.1814 66.936 58.6614 66.664C58.1414 66.384 57.7374 65.996 57.4494 65.5C57.1694 65.004 57.0294 64.444 57.0294 63.82C57.0294 63.204 57.1654 62.648 57.4374 62.152C57.7174 61.656 58.0974 61.272 58.5774 61C59.0654 60.72 59.6134 60.58 60.2214 60.58C60.8294 60.58 61.3694 60.72 61.8414 61C62.3214 61.272 62.6934 61.656 62.9574 62.152C63.2294 62.648 63.3654 63.216 63.3654 63.856ZM60.2214 61.552C59.6694 61.552 59.2054 61.72 58.8294 62.056C58.4614 62.392 58.2454 62.832 58.1814 63.376H62.2614C62.1974 62.84 61.9774 62.404 61.6014 62.068C61.2334 61.724 60.7734 61.552 60.2214 61.552ZM67.581 67.096C66.949 67.096 66.337 67 65.745 66.808C65.161 66.608 64.701 66.352 64.365 66.04L64.809 65.104C65.129 65.392 65.537 65.628 66.033 65.812C66.537 65.988 67.053 66.076 67.581 66.076C68.277 66.076 68.797 65.96 69.141 65.728C69.485 65.488 69.657 65.172 69.657 64.78C69.657 64.492 69.561 64.26 69.369 64.084C69.185 63.9 68.953 63.76 68.673 63.664C68.401 63.568 68.013 63.46 67.509 63.34C66.877 63.188 66.365 63.036 65.973 62.884C65.589 62.732 65.257 62.5 64.977 62.188C64.705 61.868 64.569 61.44 64.569 60.904C64.569 60.456 64.685 60.052 64.917 59.692C65.157 59.332 65.517 59.044 65.997 58.828C66.477 58.612 67.073 58.504 67.785 58.504C68.281 58.504 68.769 58.568 69.249 58.696C69.729 58.824 70.141 59.008 70.485 59.248L70.089 60.208C69.737 59.984 69.361 59.816 68.961 59.704C68.561 59.584 68.169 59.524 67.785 59.524C67.105 59.524 66.593 59.648 66.249 59.896C65.913 60.144 65.745 60.464 65.745 60.856C65.745 61.144 65.841 61.38 66.033 61.564C66.225 61.74 66.461 61.88 66.741 61.984C67.029 62.08 67.417 62.184 67.905 62.296C68.537 62.448 69.045 62.6 69.429 62.752C69.813 62.904 70.141 63.136 70.413 63.448C70.693 63.76 70.833 64.18 70.833 64.708C70.833 65.148 70.713 65.552 70.473 65.92C70.233 66.28 69.869 66.568 69.381 66.784C68.893 66.992 68.293 67.096 67.581 67.096ZM78.1662 63.856C78.1662 63.944 78.1582 64.06 78.1422 64.204H72.9822C73.0542 64.764 73.2982 65.216 73.7142 65.56C74.1382 65.896 74.6622 66.064 75.2862 66.064C76.0462 66.064 76.6582 65.808 77.1222 65.296L77.7582 66.04C77.4702 66.376 77.1102 66.632 76.6782 66.808C76.2542 66.984 75.7782 67.072 75.2502 67.072C74.5782 67.072 73.9822 66.936 73.4622 66.664C72.9422 66.384 72.5382 65.996 72.2502 65.5C71.9702 65.004 71.8302 64.444 71.8302 63.82C71.8302 63.204 71.9662 62.648 72.2382 62.152C72.5182 61.656 72.8982 61.272 73.3782 61C73.8662 60.72 74.4142 60.58 75.0222 60.58C75.6302 60.58 76.1702 60.72 76.6422 61C77.1222 61.272 77.4942 61.656 77.7582 62.152C78.0302 62.648 78.1662 63.216 78.1662 63.856ZM75.0222 61.552C74.4702 61.552 74.0062 61.72 73.6302 62.056C73.2622 62.392 73.0462 62.832 72.9822 63.376H77.0622C76.9982 62.84 76.7782 62.404 76.4022 62.068C76.0342 61.724 75.5742 61.552 75.0222 61.552ZM83.1618 60.58C83.9698 60.58 84.6098 60.816 85.0818 61.288C85.5618 61.752 85.8018 62.436 85.8018 63.34V67H84.6498V63.472C84.6498 62.856 84.5018 62.392 84.2058 62.08C83.9098 61.768 83.4858 61.612 82.9338 61.612C82.3098 61.612 81.8178 61.796 81.4578 62.164C81.0978 62.524 80.9178 63.044 80.9178 63.724V67H79.7658V60.64H80.8698V61.6C81.1018 61.272 81.4138 61.02 81.8058 60.844C82.2058 60.668 82.6578 60.58 83.1618 60.58ZM93.969 58.096V67H92.865V65.992C92.609 66.344 92.285 66.612 91.893 66.796C91.501 66.98 91.069 67.072 90.597 67.072C89.981 67.072 89.429 66.936 88.941 66.664C88.453 66.392 88.069 66.012 87.789 65.524C87.517 65.028 87.381 64.46 87.381 63.82C87.381 63.18 87.517 62.616 87.789 62.128C88.069 61.64 88.453 61.26 88.941 60.988C89.429 60.716 89.981 60.58 90.597 60.58C91.053 60.58 91.473 60.668 91.857 60.844C92.241 61.012 92.561 61.264 92.817 61.6V58.096H93.969ZM90.693 66.064C91.093 66.064 91.457 65.972 91.785 65.788C92.113 65.596 92.369 65.332 92.553 64.996C92.737 64.652 92.829 64.26 92.829 63.82C92.829 63.38 92.737 62.992 92.553 62.656C92.369 62.312 92.113 62.048 91.785 61.864C91.457 61.68 91.093 61.588 90.693 61.588C90.285 61.588 89.917 61.68 89.589 61.864C89.269 62.048 89.013 62.312 88.821 62.656C88.637 62.992 88.545 63.38 88.545 63.82C88.545 64.26 88.637 64.652 88.821 64.996C89.013 65.332 89.269 65.596 89.589 65.788C89.917 65.972 90.285 66.064 90.693 66.064Z" fill="#222222"/>
<path d="M189.667 41C189.667 43.9455 192.054 46.3333 195 46.3333C197.946 46.3333 200.333 43.9455 200.333 41C200.333 38.0545 197.946 35.6667 195 35.6667C192.054 35.6667 189.667 38.0545 189.667 41ZM250.707 41.7071C251.098 41.3166 251.098 40.6834 250.707 40.2929L244.343 33.9289C243.953 33.5384 243.319 33.5384 242.929 33.9289C242.538 34.3195 242.538 34.9526 242.929 35.3431L248.586 41L242.929 46.6569C242.538 47.0474 242.538 47.6805 242.929 48.0711C243.319 48.4616 243.953 48.4616 244.343 48.0711L250.707 41.7071ZM222.5 42H250V40H222.5V42ZM195 42H195.598V40H195V42ZM195.598 42H222.5V40H195.598V42Z" fill="#FE812D"/>
<path d="M276.709 41.466C277.441 41.67 278.017 42.042 278.437 42.582C278.857 43.11 279.067 43.782 279.067 44.598C279.067 45.69 278.653 46.53 277.825 47.118C277.009 47.706 275.815 48 274.243 48H268.231V35.4H273.883C275.323 35.4 276.433 35.688 277.213 36.264C278.005 36.84 278.401 37.638 278.401 38.658C278.401 39.318 278.245 39.888 277.933 40.368C277.633 40.848 277.225 41.214 276.709 41.466ZM270.031 36.858V40.89H273.721C274.645 40.89 275.353 40.722 275.845 40.386C276.349 40.038 276.601 39.534 276.601 38.874C276.601 38.214 276.349 37.716 275.845 37.38C275.353 37.032 274.645 36.858 273.721 36.858H270.031ZM274.171 46.542C275.191 46.542 275.959 46.374 276.475 46.038C276.991 45.702 277.249 45.174 277.249 44.454C277.249 43.05 276.223 42.348 274.171 42.348H270.031V46.542H274.171ZM285.688 48.108C284.74 48.108 283.888 47.898 283.132 47.478C282.376 47.058 281.782 46.482 281.35 45.75C280.93 45.006 280.72 44.166 280.72 43.23C280.72 42.294 280.93 41.46 281.35 40.728C281.782 39.984 282.376 39.408 283.132 39C283.888 38.58 284.74 38.37 285.688 38.37C286.636 38.37 287.482 38.58 288.226 39C288.982 39.408 289.57 39.984 289.99 40.728C290.422 41.46 290.638 42.294 290.638 43.23C290.638 44.166 290.422 45.006 289.99 45.75C289.57 46.482 288.982 47.058 288.226 47.478C287.482 47.898 286.636 48.108 285.688 48.108ZM285.688 46.596C286.3 46.596 286.846 46.458 287.326 46.182C287.818 45.894 288.202 45.498 288.478 44.994C288.754 44.478 288.892 43.89 288.892 43.23C288.892 42.57 288.754 41.988 288.478 41.484C288.202 40.968 287.818 40.572 287.326 40.296C286.846 40.02 286.3 39.882 285.688 39.882C285.076 39.882 284.524 40.02 284.032 40.296C283.552 40.572 283.168 40.968 282.88 41.484C282.604 41.988 282.466 42.57 282.466 43.23C282.466 43.89 282.604 44.478 282.88 44.994C283.168 45.498 283.552 45.894 284.032 46.182C284.524 46.458 285.076 46.596 285.688 46.596ZM298.086 38.37C299.01 38.37 299.838 38.574 300.57 38.982C301.302 39.39 301.872 39.96 302.28 40.692C302.7 41.424 302.91 42.27 302.91 43.23C302.91 44.19 302.7 45.042 302.28 45.786C301.872 46.518 301.302 47.088 300.57 47.496C299.838 47.904 299.01 48.108 298.086 48.108C297.378 48.108 296.73 47.97 296.142 47.694C295.554 47.418 295.068 47.016 294.684 46.488V48H293.028V34.644H294.756V39.9C295.14 39.396 295.62 39.018 296.196 38.766C296.772 38.502 297.402 38.37 298.086 38.37ZM297.942 46.596C298.554 46.596 299.1 46.458 299.58 46.182C300.072 45.894 300.456 45.498 300.732 44.994C301.02 44.478 301.164 43.89 301.164 43.23C301.164 42.57 301.02 41.988 300.732 41.484C300.456 40.968 300.072 40.572 299.58 40.296C299.1 40.02 298.554 39.882 297.942 39.882C297.342 39.882 296.796 40.02 296.304 40.296C295.812 40.572 295.428 40.968 295.152 41.484C294.876 41.988 294.738 42.57 294.738 43.23C294.738 43.89 294.876 44.478 295.152 44.994C295.428 45.498 295.812 45.894 296.304 46.182C296.796 46.458 297.342 46.596 297.942 46.596Z" fill="#FE812D"/>
<path d="M351.028 31.856C351.028 31.944 351.02 32.06 351.004 32.204H345.844C345.916 32.764 346.16 33.216 346.576 33.56C347 33.896 347.524 34.064 348.148 34.064C348.908 34.064 349.52 33.808 349.984 33.296L350.62 34.04C350.332 34.376 349.972 34.632 349.54 34.808C349.116 34.984 348.64 35.072 348.112 35.072C347.44 35.072 346.844 34.936 346.324 34.664C345.804 34.384 345.4 33.996 345.112 33.5C344.832 33.004 344.692 32.444 344.692 31.82C344.692 31.204 344.828 30.648 345.1 30.152C345.38 29.656 345.76 29.272 346.24 29C346.728 28.72 347.276 28.58 347.884 28.58C348.492 28.58 349.032 28.72 349.504 29C349.984 29.272 350.356 29.656 350.62 30.152C350.892 30.648 351.028 31.216 351.028 31.856ZM347.884 29.552C347.332 29.552 346.868 29.72 346.492 30.056C346.124 30.392 345.908 30.832 345.844 31.376H349.924C349.86 30.84 349.64 30.404 349.264 30.068C348.896 29.724 348.436 29.552 347.884 29.552ZM355.531 31.268L353.995 32.828V35H352.795V26.6H353.995V31.292L358.555 26.6H359.923L356.335 30.38L360.151 35H358.747L355.531 31.268ZM366.719 31.856C366.719 31.944 366.711 32.06 366.695 32.204H361.535C361.607 32.764 361.851 33.216 362.267 33.56C362.691 33.896 363.215 34.064 363.839 34.064C364.599 34.064 365.211 33.808 365.675 33.296L366.311 34.04C366.023 34.376 365.663 34.632 365.231 34.808C364.807 34.984 364.331 35.072 363.803 35.072C363.131 35.072 362.535 34.936 362.015 34.664C361.495 34.384 361.091 33.996 360.803 33.5C360.523 33.004 360.383 32.444 360.383 31.82C360.383 31.204 360.519 30.648 360.791 30.152C361.071 29.656 361.451 29.272 361.931 29C362.419 28.72 362.967 28.58 363.575 28.58C364.183 28.58 364.723 28.72 365.195 29C365.675 29.272 366.047 29.656 366.311 30.152C366.583 30.648 366.719 31.216 366.719 31.856ZM363.575 29.552C363.023 29.552 362.559 29.72 362.183 30.056C361.815 30.392 361.599 30.832 361.535 31.376H365.615C365.551 30.84 365.331 30.404 364.955 30.068C364.587 29.724 364.127 29.552 363.575 29.552ZM373.829 28.64L370.745 35.636C370.473 36.284 370.153 36.74 369.785 37.004C369.425 37.268 368.989 37.4 368.477 37.4C368.165 37.4 367.861 37.348 367.565 37.244C367.277 37.148 367.037 37.004 366.845 36.812L367.337 35.948C367.665 36.26 368.045 36.416 368.477 36.416C368.757 36.416 368.989 36.34 369.173 36.188C369.365 36.044 369.537 35.792 369.689 35.432L369.893 34.988L367.085 28.64H368.285L370.505 33.728L372.701 28.64H373.829ZM329.098 41.972C328.41 41.972 328.066 42.344 328.066 43.088V43.64H329.914V44.588H328.09V50H326.938V44.588H325.858V43.64H326.938V43.076C326.938 42.444 327.122 41.944 327.49 41.576C327.858 41.208 328.374 41.024 329.038 41.024C329.294 41.024 329.534 41.056 329.758 41.12C329.982 41.184 330.174 41.276 330.334 41.396L329.986 42.272C329.722 42.072 329.426 41.972 329.098 41.972ZM331.966 43.64H333.118V50H331.966V43.64ZM332.542 42.416C332.318 42.416 332.13 42.344 331.978 42.2C331.834 42.056 331.762 41.88 331.762 41.672C331.762 41.464 331.834 41.288 331.978 41.144C332.13 40.992 332.318 40.916 332.542 40.916C332.766 40.916 332.95 40.988 333.094 41.132C333.246 41.268 333.322 41.44 333.322 41.648C333.322 41.864 333.246 42.048 333.094 42.2C332.95 42.344 332.766 42.416 332.542 42.416ZM335.313 41.096H336.465V50H335.313V41.096ZM344.412 46.856C344.412 46.944 344.404 47.06 344.388 47.204H339.228C339.3 47.764 339.544 48.216 339.96 48.56C340.384 48.896 340.908 49.064 341.532 49.064C342.292 49.064 342.904 48.808 343.368 48.296L344.004 49.04C343.716 49.376 343.356 49.632 342.924 49.808C342.5 49.984 342.024 50.072 341.496 50.072C340.824 50.072 340.228 49.936 339.708 49.664C339.188 49.384 338.784 48.996 338.496 48.5C338.216 48.004 338.076 47.444 338.076 46.82C338.076 46.204 338.212 45.648 338.484 45.152C338.764 44.656 339.144 44.272 339.624 44C340.112 43.72 340.66 43.58 341.268 43.58C341.876 43.58 342.416 43.72 342.888 44C343.368 44.272 343.74 44.656 344.004 45.152C344.276 45.648 344.412 46.216 344.412 46.856ZM341.268 44.552C340.716 44.552 340.252 44.72 339.876 45.056C339.508 45.392 339.292 45.832 339.228 46.376H343.308C343.244 45.84 343.024 45.404 342.648 45.068C342.28 44.724 341.82 44.552 341.268 44.552ZM351.796 50L349.984 47.42C349.76 47.436 349.584 47.444 349.456 47.444H347.38V50H346.18V41.6H349.456C350.544 41.6 351.4 41.86 352.024 42.38C352.648 42.9 352.96 43.616 352.96 44.528C352.96 45.176 352.8 45.728 352.48 46.184C352.16 46.64 351.704 46.972 351.112 47.18L353.104 50H351.796ZM349.42 46.424C350.18 46.424 350.76 46.26 351.16 45.932C351.56 45.604 351.76 45.136 351.76 44.528C351.76 43.92 351.56 43.456 351.16 43.136C350.76 42.808 350.18 42.644 349.42 42.644H347.38V46.424H349.42ZM360.479 46.856C360.479 46.944 360.471 47.06 360.455 47.204H355.295C355.367 47.764 355.611 48.216 356.027 48.56C356.451 48.896 356.975 49.064 357.599 49.064C358.359 49.064 358.971 48.808 359.435 48.296L360.071 49.04C359.783 49.376 359.423 49.632 358.991 49.808C358.567 49.984 358.091 50.072 357.563 50.072C356.891 50.072 356.295 49.936 355.775 49.664C355.255 49.384 354.851 48.996 354.563 48.5C354.283 48.004 354.143 47.444 354.143 46.82C354.143 46.204 354.279 45.648 354.551 45.152C354.831 44.656 355.211 44.272 355.691 44C356.179 43.72 356.727 43.58 357.335 43.58C357.943 43.58 358.483 43.72 358.955 44C359.435 44.272 359.807 44.656 360.071 45.152C360.343 45.648 360.479 46.216 360.479 46.856ZM357.335 44.552C356.783 44.552 356.319 44.72 355.943 45.056C355.575 45.392 355.359 45.832 355.295 46.376H359.375C359.311 45.84 359.091 45.404 358.715 45.068C358.347 44.724 357.887 44.552 357.335 44.552ZM364.85 50.072C364.202 50.072 363.622 49.932 363.11 49.652C362.606 49.372 362.21 48.988 361.922 48.5C361.634 48.004 361.49 47.444 361.49 46.82C361.49 46.196 361.634 45.64 361.922 45.152C362.21 44.656 362.606 44.272 363.11 44C363.622 43.72 364.202 43.58 364.85 43.58C365.426 43.58 365.938 43.696 366.386 43.928C366.842 44.16 367.194 44.496 367.442 44.936L366.566 45.5C366.366 45.196 366.118 44.968 365.822 44.816C365.526 44.664 365.198 44.588 364.838 44.588C364.422 44.588 364.046 44.68 363.71 44.864C363.382 45.048 363.122 45.312 362.93 45.656C362.746 45.992 362.654 46.38 362.654 46.82C362.654 47.268 362.746 47.664 362.93 48.008C363.122 48.344 363.382 48.604 363.71 48.788C364.046 48.972 364.422 49.064 364.838 49.064C365.198 49.064 365.526 48.988 365.822 48.836C366.118 48.684 366.366 48.456 366.566 48.152L367.442 48.704C367.194 49.144 366.842 49.484 366.386 49.724C365.938 49.956 365.426 50.072 364.85 50.072ZM374.588 46.856C374.588 46.944 374.58 47.06 374.564 47.204H369.404C369.476 47.764 369.72 48.216 370.136 48.56C370.56 48.896 371.084 49.064 371.708 49.064C372.468 49.064 373.08 48.808 373.544 48.296L374.18 49.04C373.892 49.376 373.532 49.632 373.1 49.808C372.676 49.984 372.2 50.072 371.672 50.072C371 50.072 370.404 49.936 369.884 49.664C369.364 49.384 368.96 48.996 368.672 48.5C368.392 48.004 368.252 47.444 368.252 46.82C368.252 46.204 368.388 45.648 368.66 45.152C368.94 44.656 369.32 44.272 369.8 44C370.288 43.72 370.836 43.58 371.444 43.58C372.052 43.58 372.592 43.72 373.064 44C373.544 44.272 373.916 44.656 374.18 45.152C374.452 45.648 374.588 46.216 374.588 46.856ZM371.444 44.552C370.892 44.552 370.428 44.72 370.052 45.056C369.684 45.392 369.468 45.832 369.404 46.376H373.484C373.42 45.84 373.2 45.404 372.824 45.068C372.456 44.724 371.996 44.552 371.444 44.552ZM376.188 43.64H377.34V50H376.188V43.64ZM376.764 42.416C376.54 42.416 376.352 42.344 376.2 42.2C376.056 42.056 375.984 41.88 375.984 41.672C375.984 41.464 376.056 41.288 376.2 41.144C376.352 40.992 376.54 40.916 376.764 40.916C376.988 40.916 377.172 40.988 377.316 41.132C377.468 41.268 377.544 41.44 377.544 41.648C377.544 41.864 377.468 42.048 377.316 42.2C377.172 42.344 376.988 42.416 376.764 42.416ZM385.167 43.64L382.383 50H381.207L378.423 43.64H379.623L381.807 48.74L384.039 43.64H385.167ZM391.815 46.856C391.815 46.944 391.807 47.06 391.791 47.204H386.631C386.703 47.764 386.947 48.216 387.363 48.56C387.787 48.896 388.311 49.064 388.935 49.064C389.695 49.064 390.307 48.808 390.771 48.296L391.407 49.04C391.119 49.376 390.759 49.632 390.327 49.808C389.903 49.984 389.427 50.072 388.899 50.072C388.227 50.072 387.631 49.936 387.111 49.664C386.591 49.384 386.187 48.996 385.899 48.5C385.619 48.004 385.479 47.444 385.479 46.82C385.479 46.204 385.615 45.648 385.887 45.152C386.167 44.656 386.547 44.272 387.027 44C387.515 43.72 388.063 43.58 388.671 43.58C389.279 43.58 389.819 43.72 390.291 44C390.771 44.272 391.143 44.656 391.407 45.152C391.679 45.648 391.815 46.216 391.815 46.856ZM388.671 44.552C388.119 44.552 387.655 44.72 387.279 45.056C386.911 45.392 386.695 45.832 386.631 46.376H390.711C390.647 45.84 390.427 45.404 390.051 45.068C389.683 44.724 389.223 44.552 388.671 44.552Z" fill="#222222"/>
<path d="M572.557 31.072C572.037 31.072 571.537 31.004 571.057 30.868C570.577 30.724 570.201 30.544 569.929 30.328L570.409 29.416C570.689 29.616 571.029 29.776 571.429 29.896C571.829 30.016 572.233 30.076 572.641 30.076C573.649 30.076 574.153 29.788 574.153 29.212C574.153 29.02 574.085 28.868 573.949 28.756C573.813 28.644 573.641 28.564 573.433 28.516C573.233 28.46 572.945 28.4 572.569 28.336C572.057 28.256 571.637 28.164 571.309 28.06C570.989 27.956 570.713 27.78 570.481 27.532C570.249 27.284 570.133 26.936 570.133 26.488C570.133 25.912 570.373 25.452 570.853 25.108C571.333 24.756 571.977 24.58 572.785 24.58C573.209 24.58 573.633 24.632 574.057 24.736C574.481 24.84 574.829 24.98 575.101 25.156L574.609 26.068C574.089 25.732 573.477 25.564 572.773 25.564C572.285 25.564 571.913 25.644 571.657 25.804C571.401 25.964 571.273 26.176 571.273 26.44C571.273 26.648 571.345 26.812 571.489 26.932C571.633 27.052 571.809 27.14 572.017 27.196C572.233 27.252 572.533 27.316 572.917 27.388C573.429 27.476 573.841 27.572 574.153 27.676C574.473 27.772 574.745 27.94 574.969 28.18C575.193 28.42 575.305 28.756 575.305 29.188C575.305 29.764 575.057 30.224 574.561 30.568C574.073 30.904 573.405 31.072 572.557 31.072ZM580.116 24.58C580.732 24.58 581.284 24.716 581.772 24.988C582.26 25.26 582.64 25.64 582.912 26.128C583.192 26.616 583.332 27.18 583.332 27.82C583.332 28.46 583.192 29.028 582.912 29.524C582.64 30.012 582.26 30.392 581.772 30.664C581.284 30.936 580.732 31.072 580.116 31.072C579.66 31.072 579.24 30.984 578.856 30.808C578.48 30.632 578.16 30.376 577.896 30.04V33.328H576.744V24.64H577.848V25.648C578.104 25.296 578.428 25.032 578.82 24.856C579.212 24.672 579.644 24.58 580.116 24.58ZM580.02 30.064C580.428 30.064 580.792 29.972 581.112 29.788C581.44 29.596 581.696 29.332 581.88 28.996C582.072 28.652 582.168 28.26 582.168 27.82C582.168 27.38 582.072 26.992 581.88 26.656C581.696 26.312 581.44 26.048 581.112 25.864C580.792 25.68 580.428 25.588 580.02 25.588C579.62 25.588 579.256 25.684 578.928 25.876C578.608 26.06 578.352 26.32 578.16 26.656C577.976 26.992 577.884 27.38 577.884 27.82C577.884 28.26 577.976 28.652 578.16 28.996C578.344 29.332 578.6 29.596 578.928 29.788C579.256 29.972 579.62 30.064 580.02 30.064ZM590.376 24.64L587.292 31.636C587.02 32.284 586.7 32.74 586.332 33.004C585.972 33.268 585.536 33.4 585.024 33.4C584.712 33.4 584.408 33.348 584.112 33.244C583.824 33.148 583.584 33.004 583.392 32.812L583.884 31.948C584.212 32.26 584.592 32.416 585.024 32.416C585.304 32.416 585.536 32.34 585.72 32.188C585.912 32.044 586.084 31.792 586.236 31.432L586.44 30.988L583.632 24.64H584.832L587.052 29.728L589.248 24.64H590.376ZM558.16 37.972C557.472 37.972 557.128 38.344 557.128 39.088V39.64H558.976V40.588H557.152V46H556V40.588H554.92V39.64H556V39.076C556 38.444 556.184 37.944 556.552 37.576C556.92 37.208 557.436 37.024 558.1 37.024C558.356 37.024 558.596 37.056 558.82 37.12C559.044 37.184 559.236 37.276 559.396 37.396L559.048 38.272C558.784 38.072 558.488 37.972 558.16 37.972ZM561.028 39.64H562.18V46H561.028V39.64ZM561.604 38.416C561.38 38.416 561.192 38.344 561.04 38.2C560.896 38.056 560.824 37.88 560.824 37.672C560.824 37.464 560.896 37.288 561.04 37.144C561.192 36.992 561.38 36.916 561.604 36.916C561.828 36.916 562.012 36.988 562.156 37.132C562.308 37.268 562.384 37.44 562.384 37.648C562.384 37.864 562.308 38.048 562.156 38.2C562.012 38.344 561.828 38.416 561.604 38.416ZM564.375 37.096H565.527V46H564.375V37.096ZM573.475 42.856C573.475 42.944 573.467 43.06 573.451 43.204H568.291C568.363 43.764 568.607 44.216 569.023 44.56C569.447 44.896 569.971 45.064 570.595 45.064C571.355 45.064 571.967 44.808 572.431 44.296L573.067 45.04C572.779 45.376 572.419 45.632 571.987 45.808C571.563 45.984 571.087 46.072 570.559 46.072C569.887 46.072 569.291 45.936 568.771 45.664C568.251 45.384 567.847 44.996 567.559 44.5C567.279 44.004 567.139 43.444 567.139 42.82C567.139 42.204 567.275 41.648 567.547 41.152C567.827 40.656 568.207 40.272 568.687 40C569.175 39.72 569.723 39.58 570.331 39.58C570.939 39.58 571.479 39.72 571.951 40C572.431 40.272 572.803 40.656 573.067 41.152C573.339 41.648 573.475 42.216 573.475 42.856ZM570.331 40.552C569.779 40.552 569.315 40.72 568.939 41.056C568.571 41.392 568.355 41.832 568.291 42.376H572.371C572.307 41.84 572.087 41.404 571.711 41.068C571.343 40.724 570.883 40.552 570.331 40.552ZM580.858 46L579.046 43.42C578.822 43.436 578.646 43.444 578.518 43.444H576.442V46H575.242V37.6H578.518C579.606 37.6 580.462 37.86 581.086 38.38C581.71 38.9 582.022 39.616 582.022 40.528C582.022 41.176 581.862 41.728 581.542 42.184C581.222 42.64 580.766 42.972 580.174 43.18L582.166 46H580.858ZM578.482 42.424C579.242 42.424 579.822 42.26 580.222 41.932C580.622 41.604 580.822 41.136 580.822 40.528C580.822 39.92 580.622 39.456 580.222 39.136C579.822 38.808 579.242 38.644 578.482 38.644H576.442V42.424H578.482ZM589.541 42.856C589.541 42.944 589.533 43.06 589.517 43.204H584.357C584.429 43.764 584.673 44.216 585.089 44.56C585.513 44.896 586.037 45.064 586.661 45.064C587.421 45.064 588.033 44.808 588.497 44.296L589.133 45.04C588.845 45.376 588.485 45.632 588.053 45.808C587.629 45.984 587.153 46.072 586.625 46.072C585.953 46.072 585.357 45.936 584.837 45.664C584.317 45.384 583.913 44.996 583.625 44.5C583.345 44.004 583.205 43.444 583.205 42.82C583.205 42.204 583.341 41.648 583.613 41.152C583.893 40.656 584.273 40.272 584.753 40C585.241 39.72 585.789 39.58 586.397 39.58C587.005 39.58 587.545 39.72 588.017 40C588.497 40.272 588.869 40.656 589.133 41.152C589.405 41.648 589.541 42.216 589.541 42.856ZM586.397 40.552C585.845 40.552 585.381 40.72 585.005 41.056C584.637 41.392 584.421 41.832 584.357 42.376H588.437C588.373 41.84 588.153 41.404 587.777 41.068C587.409 40.724 586.949 40.552 586.397 40.552ZM593.281 39.58C594.161 39.58 594.833 39.796 595.297 40.228C595.769 40.66 596.005 41.304 596.005 42.16V46H594.913V45.16C594.721 45.456 594.445 45.684 594.085 45.844C593.733 45.996 593.313 46.072 592.825 46.072C592.113 46.072 591.541 45.9 591.109 45.556C590.685 45.212 590.473 44.76 590.473 44.2C590.473 43.64 590.677 43.192 591.085 42.856C591.493 42.512 592.141 42.34 593.029 42.34H594.853V42.112C594.853 41.616 594.709 41.236 594.421 40.972C594.133 40.708 593.709 40.576 593.149 40.576C592.773 40.576 592.405 40.64 592.045 40.768C591.685 40.888 591.381 41.052 591.133 41.26L590.653 40.396C590.981 40.132 591.373 39.932 591.829 39.796C592.285 39.652 592.769 39.58 593.281 39.58ZM593.017 45.184C593.457 45.184 593.837 45.088 594.157 44.896C594.477 44.696 594.709 44.416 594.853 44.056V43.168H593.077C592.101 43.168 591.613 43.496 591.613 44.152C591.613 44.472 591.737 44.724 591.985 44.908C592.233 45.092 592.577 45.184 593.017 45.184ZM604.172 37.096V46H603.068V44.992C602.812 45.344 602.488 45.612 602.096 45.796C601.704 45.98 601.272 46.072 600.8 46.072C600.184 46.072 599.632 45.936 599.144 45.664C598.656 45.392 598.272 45.012 597.992 44.524C597.72 44.028 597.584 43.46 597.584 42.82C597.584 42.18 597.72 41.616 597.992 41.128C598.272 40.64 598.656 40.26 599.144 39.988C599.632 39.716 600.184 39.58 600.8 39.58C601.256 39.58 601.676 39.668 602.06 39.844C602.444 40.012 602.764 40.264 603.02 40.6V37.096H604.172ZM600.896 45.064C601.296 45.064 601.66 44.972 601.988 44.788C602.316 44.596 602.572 44.332 602.756 43.996C602.94 43.652 603.032 43.26 603.032 42.82C603.032 42.38 602.94 41.992 602.756 41.656C602.572 41.312 602.316 41.048 601.988 40.864C601.66 40.68 601.296 40.588 600.896 40.588C600.488 40.588 600.12 40.68 599.792 40.864C599.472 41.048 599.216 41.312 599.024 41.656C598.84 41.992 598.748 42.38 598.748 42.82C598.748 43.26 598.84 43.652 599.024 43.996C599.216 44.332 599.472 44.596 599.792 44.788C600.12 44.972 600.488 45.064 600.896 45.064ZM550.098 52.972C549.41 52.972 549.066 53.344 549.066 54.088V54.64H550.914V55.588H549.09V61H547.938V55.588H546.858V54.64H547.938V54.076C547.938 53.444 548.122 52.944 548.49 52.576C548.858 52.208 549.374 52.024 550.038 52.024C550.294 52.024 550.534 52.056 550.758 52.12C550.982 52.184 551.174 52.276 551.334 52.396L550.986 53.272C550.722 53.072 550.426 52.972 550.098 52.972ZM552.966 54.64H554.118V61H552.966V54.64ZM553.542 53.416C553.318 53.416 553.13 53.344 552.978 53.2C552.834 53.056 552.762 52.88 552.762 52.672C552.762 52.464 552.834 52.288 552.978 52.144C553.13 51.992 553.318 51.916 553.542 51.916C553.766 51.916 553.95 51.988 554.094 52.132C554.246 52.268 554.322 52.44 554.322 52.648C554.322 52.864 554.246 53.048 554.094 53.2C553.95 53.344 553.766 53.416 553.542 53.416ZM556.313 52.096H557.465V61H556.313V52.096ZM565.412 57.856C565.412 57.944 565.404 58.06 565.388 58.204H560.228C560.3 58.764 560.544 59.216 560.96 59.56C561.384 59.896 561.908 60.064 562.532 60.064C563.292 60.064 563.904 59.808 564.368 59.296L565.004 60.04C564.716 60.376 564.356 60.632 563.924 60.808C563.5 60.984 563.024 61.072 562.496 61.072C561.824 61.072 561.228 60.936 560.708 60.664C560.188 60.384 559.784 59.996 559.496 59.5C559.216 59.004 559.076 58.444 559.076 57.82C559.076 57.204 559.212 56.648 559.484 56.152C559.764 55.656 560.144 55.272 560.624 55C561.112 54.72 561.66 54.58 562.268 54.58C562.876 54.58 563.416 54.72 563.888 55C564.368 55.272 564.74 55.656 565.004 56.152C565.276 56.648 565.412 57.216 565.412 57.856ZM562.268 55.552C561.716 55.552 561.252 55.72 560.876 56.056C560.508 56.392 560.292 56.832 560.228 57.376H564.308C564.244 56.84 564.024 56.404 563.648 56.068C563.28 55.724 562.82 55.552 562.268 55.552ZM572.796 61L570.984 58.42C570.76 58.436 570.584 58.444 570.456 58.444H568.38V61H567.18V52.6H570.456C571.544 52.6 572.4 52.86 573.024 53.38C573.648 53.9 573.96 54.616 573.96 55.528C573.96 56.176 573.8 56.728 573.48 57.184C573.16 57.64 572.704 57.972 572.112 58.18L574.104 61H572.796ZM570.42 57.424C571.18 57.424 571.76 57.26 572.16 56.932C572.56 56.604 572.76 56.136 572.76 55.528C572.76 54.92 572.56 54.456 572.16 54.136C571.76 53.808 571.18 53.644 570.42 53.644H568.38V57.424H570.42ZM581.479 57.856C581.479 57.944 581.471 58.06 581.455 58.204H576.295C576.367 58.764 576.611 59.216 577.027 59.56C577.451 59.896 577.975 60.064 578.599 60.064C579.359 60.064 579.971 59.808 580.435 59.296L581.071 60.04C580.783 60.376 580.423 60.632 579.991 60.808C579.567 60.984 579.091 61.072 578.563 61.072C577.891 61.072 577.295 60.936 576.775 60.664C576.255 60.384 575.851 59.996 575.563 59.5C575.283 59.004 575.143 58.444 575.143 57.82C575.143 57.204 575.279 56.648 575.551 56.152C575.831 55.656 576.211 55.272 576.691 55C577.179 54.72 577.727 54.58 578.335 54.58C578.943 54.58 579.483 54.72 579.955 55C580.435 55.272 580.807 55.656 581.071 56.152C581.343 56.648 581.479 57.216 581.479 57.856ZM578.335 55.552C577.783 55.552 577.319 55.72 576.943 56.056C576.575 56.392 576.359 56.832 576.295 57.376H580.375C580.311 56.84 580.091 56.404 579.715 56.068C579.347 55.724 578.887 55.552 578.335 55.552ZM585.85 61.072C585.202 61.072 584.622 60.932 584.11 60.652C583.606 60.372 583.21 59.988 582.922 59.5C582.634 59.004 582.49 58.444 582.49 57.82C582.49 57.196 582.634 56.64 582.922 56.152C583.21 55.656 583.606 55.272 584.11 55C584.622 54.72 585.202 54.58 585.85 54.58C586.426 54.58 586.938 54.696 587.386 54.928C587.842 55.16 588.194 55.496 588.442 55.936L587.566 56.5C587.366 56.196 587.118 55.968 586.822 55.816C586.526 55.664 586.198 55.588 585.838 55.588C585.422 55.588 585.046 55.68 584.71 55.864C584.382 56.048 584.122 56.312 583.93 56.656C583.746 56.992 583.654 57.38 583.654 57.82C583.654 58.268 583.746 58.664 583.93 59.008C584.122 59.344 584.382 59.604 584.71 59.788C585.046 59.972 585.422 60.064 585.838 60.064C586.198 60.064 586.526 59.988 586.822 59.836C587.118 59.684 587.366 59.456 587.566 59.152L588.442 59.704C588.194 60.144 587.842 60.484 587.386 60.724C586.938 60.956 586.426 61.072 585.85 61.072ZM595.588 57.856C595.588 57.944 595.58 58.06 595.564 58.204H590.404C590.476 58.764 590.72 59.216 591.136 59.56C591.56 59.896 592.084 60.064 592.708 60.064C593.468 60.064 594.08 59.808 594.544 59.296L595.18 60.04C594.892 60.376 594.532 60.632 594.1 60.808C593.676 60.984 593.2 61.072 592.672 61.072C592 61.072 591.404 60.936 590.884 60.664C590.364 60.384 589.96 59.996 589.672 59.5C589.392 59.004 589.252 58.444 589.252 57.82C589.252 57.204 589.388 56.648 589.66 56.152C589.94 55.656 590.32 55.272 590.8 55C591.288 54.72 591.836 54.58 592.444 54.58C593.052 54.58 593.592 54.72 594.064 55C594.544 55.272 594.916 55.656 595.18 56.152C595.452 56.648 595.588 57.216 595.588 57.856ZM592.444 55.552C591.892 55.552 591.428 55.72 591.052 56.056C590.684 56.392 590.468 56.832 590.404 57.376H594.484C594.42 56.84 594.2 56.404 593.824 56.068C593.456 55.724 592.996 55.552 592.444 55.552ZM597.188 54.64H598.34V61H597.188V54.64ZM597.764 53.416C597.54 53.416 597.352 53.344 597.2 53.2C597.056 53.056 596.984 52.88 596.984 52.672C596.984 52.464 597.056 52.288 597.2 52.144C597.352 51.992 597.54 51.916 597.764 51.916C597.988 51.916 598.172 51.988 598.316 52.132C598.468 52.268 598.544 52.44 598.544 52.648C598.544 52.864 598.468 53.048 598.316 53.2C598.172 53.344 597.988 53.416 597.764 53.416ZM606.167 54.64L603.383 61H602.207L599.423 54.64H600.623L602.807 59.74L605.039 54.64H606.167ZM612.815 57.856C612.815 57.944 612.807 58.06 612.791 58.204H607.631C607.703 58.764 607.947 59.216 608.363 59.56C608.787 59.896 609.311 60.064 609.935 60.064C610.695 60.064 611.307 59.808 611.771 59.296L612.407 60.04C612.119 60.376 611.759 60.632 611.327 60.808C610.903 60.984 610.427 61.072 609.899 61.072C609.227 61.072 608.631 60.936 608.111 60.664C607.591 60.384 607.187 59.996 606.899 59.5C606.619 59.004 606.479 58.444 606.479 57.82C606.479 57.204 606.615 56.648 606.887 56.152C607.167 55.656 607.547 55.272 608.027 55C608.515 54.72 609.063 54.58 609.671 54.58C610.279 54.58 610.819 54.72 611.291 55C611.771 55.272 612.143 55.656 612.407 56.152C612.679 56.648 612.815 57.216 612.815 57.856ZM609.671 55.552C609.119 55.552 608.655 55.72 608.279 56.056C607.911 56.392 607.695 56.832 607.631 57.376H611.711C611.647 56.84 611.427 56.404 611.051 56.068C610.683 55.724 610.223 55.552 609.671 55.552Z" fill="#222222"/>
<path d="M451.774 42L446 36.2265L440.226 42L446 47.7735L451.774 42ZM409.293 41.2929C408.902 41.6834 408.902 42.3166 409.293 42.7071L415.657 49.0711C416.047 49.4616 416.681 49.4616 417.071 49.0711C417.462 48.6805 417.462 48.0474 417.071 47.6569L411.414 42L417.071 36.3431C417.462 35.9526 417.462 35.3195 417.071 34.9289C416.681 34.5384 416.047 34.5384 415.657 34.9289L409.293 41.2929ZM446 41H410V43H446V41Z" fill="#FE812D"/>
</svg>
