<svg width="634" height="84" viewBox="0 0 634 84" fill="none" xmlns="http://www.w3.org/2000/svg">
<rect width="634" height="84" rx="12" fill="#F5F5F5"/>
<path d="M466.347 48.144C465.087 48.144 463.947 47.868 462.927 47.316C461.919 46.752 461.127 45.984 460.551 45.012C459.975 44.028 459.687 42.924 459.687 41.7C459.687 40.476 459.975 39.378 460.551 38.406C461.127 37.422 461.925 36.654 462.945 36.102C463.965 35.538 465.105 35.256 466.365 35.256C467.349 35.256 468.249 35.424 469.065 35.76C469.881 36.084 470.577 36.57 471.153 37.218L469.983 38.352C469.035 37.356 467.853 36.858 466.437 36.858C465.501 36.858 464.655 37.068 463.899 37.488C463.143 37.908 462.549 38.49 462.117 39.234C461.697 39.966 461.487 40.788 461.487 41.7C461.487 42.612 461.697 43.44 462.117 44.184C462.549 44.916 463.143 45.492 463.899 45.912C464.655 46.332 465.501 46.542 466.437 46.542C467.841 46.542 469.023 46.038 469.983 45.03L471.153 46.164C470.577 46.812 469.875 47.304 469.047 47.64C468.231 47.976 467.331 48.144 466.347 48.144ZM478.563 38.37C479.775 38.37 480.735 38.724 481.443 39.432C482.163 40.128 482.523 41.154 482.523 42.51V48H480.795V42.708C480.795 41.784 480.573 41.088 480.129 40.62C479.685 40.152 479.049 39.918 478.221 39.918C477.285 39.918 476.547 40.194 476.007 40.746C475.467 41.286 475.197 42.066 475.197 43.086V48H473.469V34.644H475.197V39.81C475.557 39.354 476.025 39 476.601 38.748C477.189 38.496 477.843 38.37 478.563 38.37ZM489.195 38.37C490.515 38.37 491.523 38.694 492.219 39.342C492.927 39.99 493.281 40.956 493.281 42.24V48H491.643V46.74C491.355 47.184 490.941 47.526 490.401 47.766C489.873 47.994 489.243 48.108 488.511 48.108C487.443 48.108 486.585 47.85 485.937 47.334C485.301 46.818 484.983 46.14 484.983 45.3C484.983 44.46 485.289 43.788 485.901 43.284C486.513 42.768 487.485 42.51 488.817 42.51H491.553V42.168C491.553 41.424 491.337 40.854 490.905 40.458C490.473 40.062 489.837 39.864 488.997 39.864C488.433 39.864 487.881 39.96 487.341 40.152C486.801 40.332 486.345 40.578 485.973 40.89L485.253 39.594C485.745 39.198 486.333 38.898 487.017 38.694C487.701 38.478 488.427 38.37 489.195 38.37ZM488.799 46.776C489.459 46.776 490.029 46.632 490.509 46.344C490.989 46.044 491.337 45.624 491.553 45.084V43.752H488.889C487.425 43.752 486.693 44.244 486.693 45.228C486.693 45.708 486.879 46.086 487.251 46.362C487.623 46.638 488.139 46.776 488.799 46.776ZM498.135 40.062C498.435 39.51 498.879 39.09 499.467 38.802C500.055 38.514 500.769 38.37 501.609 38.37V40.044C501.513 40.032 501.381 40.026 501.213 40.026C500.277 40.026 499.539 40.308 498.999 40.872C498.471 41.424 498.207 42.216 498.207 43.248V48H496.479V38.46H498.135V40.062ZM503.739 34.644H505.467V48H503.739V34.644ZM508.766 38.46H510.494V48H508.766V38.46ZM509.63 36.624C509.294 36.624 509.012 36.516 508.784 36.3C508.568 36.084 508.46 35.82 508.46 35.508C508.46 35.196 508.568 34.932 508.784 34.716C509.012 34.488 509.294 34.374 509.63 34.374C509.966 34.374 510.242 34.482 510.458 34.698C510.686 34.902 510.8 35.16 510.8 35.472C510.8 35.796 510.686 36.072 510.458 36.3C510.242 36.516 509.966 36.624 509.63 36.624ZM522.415 43.284C522.415 43.416 522.403 43.59 522.379 43.806H514.639C514.747 44.646 515.113 45.324 515.737 45.84C516.373 46.344 517.159 46.596 518.095 46.596C519.235 46.596 520.153 46.212 520.849 45.444L521.803 46.56C521.371 47.064 520.831 47.448 520.183 47.712C519.547 47.976 518.833 48.108 518.041 48.108C517.033 48.108 516.139 47.904 515.359 47.496C514.579 47.076 513.973 46.494 513.541 45.75C513.121 45.006 512.911 44.166 512.911 43.23C512.911 42.306 513.115 41.472 513.523 40.728C513.943 39.984 514.513 39.408 515.233 39C515.965 38.58 516.787 38.37 517.699 38.37C518.611 38.37 519.421 38.58 520.129 39C520.849 39.408 521.407 39.984 521.803 40.728C522.211 41.472 522.415 42.324 522.415 43.284ZM517.699 39.828C516.871 39.828 516.175 40.08 515.611 40.584C515.059 41.088 514.735 41.748 514.639 42.564H520.759C520.663 41.76 520.333 41.106 519.769 40.602C519.217 40.086 518.527 39.828 517.699 39.828Z" fill="#B1B1B1"/>
<path d="M545.802 39.58C546.61 39.58 547.25 39.816 547.722 40.288C548.202 40.752 548.442 41.436 548.442 42.34V46H547.29V42.472C547.29 41.856 547.142 41.392 546.846 41.08C546.55 40.768 546.126 40.612 545.574 40.612C544.95 40.612 544.458 40.796 544.098 41.164C543.738 41.524 543.558 42.044 543.558 42.724V46H542.406V39.64H543.51V40.6C543.742 40.272 544.054 40.02 544.446 39.844C544.846 39.668 545.298 39.58 545.802 39.58ZM553.334 46.072C552.702 46.072 552.134 45.932 551.63 45.652C551.126 45.372 550.73 44.988 550.442 44.5C550.162 44.004 550.022 43.444 550.022 42.82C550.022 42.196 550.162 41.64 550.442 41.152C550.73 40.656 551.126 40.272 551.63 40C552.134 39.72 552.702 39.58 553.334 39.58C553.966 39.58 554.53 39.72 555.026 40C555.53 40.272 555.922 40.656 556.202 41.152C556.49 41.64 556.634 42.196 556.634 42.82C556.634 43.444 556.49 44.004 556.202 44.5C555.922 44.988 555.53 45.372 555.026 45.652C554.53 45.932 553.966 46.072 553.334 46.072ZM553.334 45.064C553.742 45.064 554.106 44.972 554.426 44.788C554.754 44.596 555.01 44.332 555.194 43.996C555.378 43.652 555.47 43.26 555.47 42.82C555.47 42.38 555.378 41.992 555.194 41.656C555.01 41.312 554.754 41.048 554.426 40.864C554.106 40.68 553.742 40.588 553.334 40.588C552.926 40.588 552.558 40.68 552.23 40.864C551.91 41.048 551.654 41.312 551.462 41.656C551.278 41.992 551.186 42.38 551.186 42.82C551.186 43.26 551.278 43.652 551.462 43.996C551.654 44.332 551.91 44.596 552.23 44.788C552.558 44.972 552.926 45.064 553.334 45.064ZM561.623 39.58C562.431 39.58 563.071 39.816 563.543 40.288C564.023 40.752 564.263 41.436 564.263 42.34V46H563.111V42.472C563.111 41.856 562.963 41.392 562.667 41.08C562.371 40.768 561.947 40.612 561.395 40.612C560.771 40.612 560.279 40.796 559.919 41.164C559.559 41.524 559.379 42.044 559.379 42.724V46H558.227V39.64H559.331V40.6C559.563 40.272 559.875 40.02 560.267 39.844C560.667 39.668 561.119 39.58 561.623 39.58ZM572.178 42.856C572.178 42.944 572.17 43.06 572.154 43.204H566.994C567.066 43.764 567.31 44.216 567.726 44.56C568.15 44.896 568.674 45.064 569.298 45.064C570.058 45.064 570.67 44.808 571.134 44.296L571.77 45.04C571.482 45.376 571.122 45.632 570.69 45.808C570.266 45.984 569.79 46.072 569.262 46.072C568.59 46.072 567.994 45.936 567.474 45.664C566.954 45.384 566.55 44.996 566.262 44.5C565.982 44.004 565.842 43.444 565.842 42.82C565.842 42.204 565.978 41.648 566.25 41.152C566.53 40.656 566.91 40.272 567.39 40C567.878 39.72 568.426 39.58 569.034 39.58C569.642 39.58 570.182 39.72 570.654 40C571.134 40.272 571.506 40.656 571.77 41.152C572.042 41.648 572.178 42.216 572.178 42.856ZM569.034 40.552C568.482 40.552 568.018 40.72 567.642 41.056C567.274 41.392 567.058 41.832 566.994 42.376H571.074C571.01 41.84 570.79 41.404 570.414 41.068C570.046 40.724 569.586 40.552 569.034 40.552Z" fill="#B1B1B1"/>
<path d="M137.717 43.85H131.021L129.635 47H127.781L133.487 34.4H135.269L140.993 47H139.103L137.717 43.85ZM137.087 42.41L134.369 36.236L131.651 42.41H137.087ZM142.62 33.644H144.348V47H142.62V33.644ZM147.648 37.46H149.376V47H147.648V37.46ZM148.512 35.624C148.176 35.624 147.894 35.516 147.666 35.3C147.45 35.084 147.342 34.82 147.342 34.508C147.342 34.196 147.45 33.932 147.666 33.716C147.894 33.488 148.176 33.374 148.512 33.374C148.848 33.374 149.124 33.482 149.34 33.698C149.568 33.902 149.682 34.16 149.682 34.472C149.682 34.796 149.568 35.072 149.34 35.3C149.124 35.516 148.848 35.624 148.512 35.624ZM156.833 47.108C155.861 47.108 154.991 46.898 154.223 46.478C153.467 46.058 152.873 45.482 152.441 44.75C152.009 44.006 151.793 43.166 151.793 42.23C151.793 41.294 152.009 40.46 152.441 39.728C152.873 38.984 153.467 38.408 154.223 38C154.991 37.58 155.861 37.37 156.833 37.37C157.697 37.37 158.465 37.544 159.137 37.892C159.821 38.24 160.349 38.744 160.721 39.404L159.407 40.25C159.107 39.794 158.735 39.452 158.291 39.224C157.847 38.996 157.355 38.882 156.815 38.882C156.191 38.882 155.627 39.02 155.123 39.296C154.631 39.572 154.241 39.968 153.953 40.484C153.677 40.988 153.539 41.57 153.539 42.23C153.539 42.902 153.677 43.496 153.953 44.012C154.241 44.516 154.631 44.906 155.123 45.182C155.627 45.458 156.191 45.596 156.815 45.596C157.355 45.596 157.847 45.482 158.291 45.254C158.735 45.026 159.107 44.684 159.407 44.228L160.721 45.056C160.349 45.716 159.821 46.226 159.137 46.586C158.465 46.934 157.697 47.108 156.833 47.108ZM171.44 42.284C171.44 42.416 171.428 42.59 171.404 42.806H163.664C163.772 43.646 164.138 44.324 164.762 44.84C165.398 45.344 166.184 45.596 167.12 45.596C168.26 45.596 169.178 45.212 169.874 44.444L170.828 45.56C170.396 46.064 169.856 46.448 169.208 46.712C168.572 46.976 167.858 47.108 167.066 47.108C166.058 47.108 165.164 46.904 164.384 46.496C163.604 46.076 162.998 45.494 162.566 44.75C162.146 44.006 161.936 43.166 161.936 42.23C161.936 41.306 162.14 40.472 162.548 39.728C162.968 38.984 163.538 38.408 164.258 38C164.99 37.58 165.812 37.37 166.724 37.37C167.636 37.37 168.446 37.58 169.154 38C169.874 38.408 170.432 38.984 170.828 39.728C171.236 40.472 171.44 41.324 171.44 42.284ZM166.724 38.828C165.896 38.828 165.2 39.08 164.636 39.584C164.084 40.088 163.76 40.748 163.664 41.564H169.784C169.688 40.76 169.358 40.106 168.794 39.602C168.242 39.086 167.552 38.828 166.724 38.828Z" fill="#FE812D"/>
<path d="M64.0275 23.856C64.0275 23.944 64.0195 24.06 64.0035 24.204H58.8435C58.9155 24.764 59.1595 25.216 59.5755 25.56C59.9995 25.896 60.5235 26.064 61.1475 26.064C61.9075 26.064 62.5195 25.808 62.9835 25.296L63.6195 26.04C63.3315 26.376 62.9715 26.632 62.5395 26.808C62.1155 26.984 61.6395 27.072 61.1115 27.072C60.4395 27.072 59.8435 26.936 59.3235 26.664C58.8035 26.384 58.3995 25.996 58.1115 25.5C57.8315 25.004 57.6915 24.444 57.6915 23.82C57.6915 23.204 57.8275 22.648 58.0995 22.152C58.3795 21.656 58.7595 21.272 59.2395 21C59.7275 20.72 60.2755 20.58 60.8835 20.58C61.4915 20.58 62.0315 20.72 62.5035 21C62.9835 21.272 63.3555 21.656 63.6195 22.152C63.8915 22.648 64.0275 23.216 64.0275 23.856ZM60.8835 21.552C60.3315 21.552 59.8675 21.72 59.4915 22.056C59.1235 22.392 58.9075 22.832 58.8435 23.376H62.9235C62.8595 22.84 62.6395 22.404 62.2635 22.068C61.8955 21.724 61.4355 21.552 60.8835 21.552ZM68.5312 23.268L66.9952 24.828V27H65.7952V18.6H66.9952V23.292L71.5552 18.6H72.9232L69.3352 22.38L73.1512 27H71.7472L68.5312 23.268ZM79.7189 23.856C79.7189 23.944 79.7109 24.06 79.6949 24.204H74.5349C74.6069 24.764 74.8509 25.216 75.2669 25.56C75.6909 25.896 76.2149 26.064 76.8389 26.064C77.5989 26.064 78.2109 25.808 78.6749 25.296L79.3109 26.04C79.0229 26.376 78.6629 26.632 78.2309 26.808C77.8069 26.984 77.3309 27.072 76.8029 27.072C76.1309 27.072 75.5349 26.936 75.0149 26.664C74.4949 26.384 74.0909 25.996 73.8029 25.5C73.5229 25.004 73.3829 24.444 73.3829 23.82C73.3829 23.204 73.5189 22.648 73.7909 22.152C74.0709 21.656 74.4509 21.272 74.9309 21C75.4189 20.72 75.9669 20.58 76.5749 20.58C77.1829 20.58 77.7229 20.72 78.1949 21C78.6749 21.272 79.0469 21.656 79.3109 22.152C79.5829 22.648 79.7189 23.216 79.7189 23.856ZM76.5749 21.552C76.0229 21.552 75.5589 21.72 75.1829 22.056C74.8149 22.392 74.5989 22.832 74.5349 23.376H78.6149C78.5509 22.84 78.3309 22.404 77.9549 22.068C77.5869 21.724 77.1269 21.552 76.5749 21.552ZM86.8294 20.64L83.7454 27.636C83.4734 28.284 83.1534 28.74 82.7854 29.004C82.4254 29.268 81.9894 29.4 81.4774 29.4C81.1654 29.4 80.8614 29.348 80.5654 29.244C80.2774 29.148 80.0374 29.004 79.8454 28.812L80.3374 27.948C80.6654 28.26 81.0454 28.416 81.4774 28.416C81.7574 28.416 81.9894 28.34 82.1734 28.188C82.3654 28.044 82.5374 27.792 82.6894 27.432L82.8934 26.988L80.0854 20.64H81.2854L83.5054 25.728L85.7014 20.64H86.8294ZM52.3634 33.972C51.6754 33.972 51.3314 34.344 51.3314 35.088V35.64H53.1794V36.588H51.3554V42H50.2034V36.588H49.1234V35.64H50.2034V35.076C50.2034 34.444 50.3874 33.944 50.7554 33.576C51.1234 33.208 51.6394 33.024 52.3034 33.024C52.5594 33.024 52.7994 33.056 53.0234 33.12C53.2474 33.184 53.4394 33.276 53.5994 33.396L53.2514 34.272C52.9874 34.072 52.6914 33.972 52.3634 33.972ZM54.2714 33.096H55.4234V42H54.2714V33.096ZM63.3654 38.856C63.3654 38.944 63.3574 39.06 63.3414 39.204H58.1814C58.2534 39.764 58.4974 40.216 58.9134 40.56C59.3374 40.896 59.8614 41.064 60.4854 41.064C61.2454 41.064 61.8574 40.808 62.3214 40.296L62.9574 41.04C62.6694 41.376 62.3094 41.632 61.8774 41.808C61.4534 41.984 60.9774 42.072 60.4494 42.072C59.7774 42.072 59.1814 41.936 58.6614 41.664C58.1414 41.384 57.7374 40.996 57.4494 40.5C57.1694 40.004 57.0294 39.444 57.0294 38.82C57.0294 38.204 57.1654 37.648 57.4374 37.152C57.7174 36.656 58.0974 36.272 58.5774 36C59.0654 35.72 59.6134 35.58 60.2214 35.58C60.8294 35.58 61.3694 35.72 61.8414 36C62.3214 36.272 62.6934 36.656 62.9574 37.152C63.2294 37.648 63.3654 38.216 63.3654 38.856ZM60.2214 36.552C59.6694 36.552 59.2054 36.72 58.8294 37.056C58.4614 37.392 58.2454 37.832 58.1814 38.376H62.2614C62.1974 37.84 61.9774 37.404 61.6014 37.068C61.2334 36.724 60.7734 36.552 60.2214 36.552ZM67.581 42.096C66.949 42.096 66.337 42 65.745 41.808C65.161 41.608 64.701 41.352 64.365 41.04L64.809 40.104C65.129 40.392 65.537 40.628 66.033 40.812C66.537 40.988 67.053 41.076 67.581 41.076C68.277 41.076 68.797 40.96 69.141 40.728C69.485 40.488 69.657 40.172 69.657 39.78C69.657 39.492 69.561 39.26 69.369 39.084C69.185 38.9 68.953 38.76 68.673 38.664C68.401 38.568 68.013 38.46 67.509 38.34C66.877 38.188 66.365 38.036 65.973 37.884C65.589 37.732 65.257 37.5 64.977 37.188C64.705 36.868 64.569 36.44 64.569 35.904C64.569 35.456 64.685 35.052 64.917 34.692C65.157 34.332 65.517 34.044 65.997 33.828C66.477 33.612 67.073 33.504 67.785 33.504C68.281 33.504 68.769 33.568 69.249 33.696C69.729 33.824 70.141 34.008 70.485 34.248L70.089 35.208C69.737 34.984 69.361 34.816 68.961 34.704C68.561 34.584 68.169 34.524 67.785 34.524C67.105 34.524 66.593 34.648 66.249 34.896C65.913 35.144 65.745 35.464 65.745 35.856C65.745 36.144 65.841 36.38 66.033 36.564C66.225 36.74 66.461 36.88 66.741 36.984C67.029 37.08 67.417 37.184 67.905 37.296C68.537 37.448 69.045 37.6 69.429 37.752C69.813 37.904 70.141 38.136 70.413 38.448C70.693 38.76 70.833 39.18 70.833 39.708C70.833 40.148 70.713 40.552 70.473 40.92C70.233 41.28 69.869 41.568 69.381 41.784C68.893 41.992 68.293 42.096 67.581 42.096ZM78.1662 38.856C78.1662 38.944 78.1582 39.06 78.1422 39.204H72.9822C73.0542 39.764 73.2982 40.216 73.7142 40.56C74.1382 40.896 74.6622 41.064 75.2862 41.064C76.0462 41.064 76.6582 40.808 77.1222 40.296L77.7582 41.04C77.4702 41.376 77.1102 41.632 76.6782 41.808C76.2542 41.984 75.7782 42.072 75.2502 42.072C74.5782 42.072 73.9822 41.936 73.4622 41.664C72.9422 41.384 72.5382 40.996 72.2502 40.5C71.9702 40.004 71.8302 39.444 71.8302 38.82C71.8302 38.204 71.9662 37.648 72.2382 37.152C72.5182 36.656 72.8982 36.272 73.3782 36C73.8662 35.72 74.4142 35.58 75.0222 35.58C75.6302 35.58 76.1702 35.72 76.6422 36C77.1222 36.272 77.4942 36.656 77.7582 37.152C78.0302 37.648 78.1662 38.216 78.1662 38.856ZM75.0222 36.552C74.4702 36.552 74.0062 36.72 73.6302 37.056C73.2622 37.392 73.0462 37.832 72.9822 38.376H77.0622C76.9982 37.84 76.7782 37.404 76.4022 37.068C76.0342 36.724 75.5742 36.552 75.0222 36.552ZM83.1618 35.58C83.9698 35.58 84.6098 35.816 85.0818 36.288C85.5618 36.752 85.8018 37.436 85.8018 38.34V42H84.6498V38.472C84.6498 37.856 84.5018 37.392 84.2058 37.08C83.9098 36.768 83.4858 36.612 82.9338 36.612C82.3098 36.612 81.8178 36.796 81.4578 37.164C81.0978 37.524 80.9178 38.044 80.9178 38.724V42H79.7658V35.64H80.8698V36.6C81.1018 36.272 81.4138 36.02 81.8058 35.844C82.2058 35.668 82.6578 35.58 83.1618 35.58ZM93.969 33.096V42H92.865V40.992C92.609 41.344 92.285 41.612 91.893 41.796C91.501 41.98 91.069 42.072 90.597 42.072C89.981 42.072 89.429 41.936 88.941 41.664C88.453 41.392 88.069 41.012 87.789 40.524C87.517 40.028 87.381 39.46 87.381 38.82C87.381 38.18 87.517 37.616 87.789 37.128C88.069 36.64 88.453 36.26 88.941 35.988C89.429 35.716 89.981 35.58 90.597 35.58C91.053 35.58 91.473 35.668 91.857 35.844C92.241 36.012 92.561 36.264 92.817 36.6V33.096H93.969ZM90.693 41.064C91.093 41.064 91.457 40.972 91.785 40.788C92.113 40.596 92.369 40.332 92.553 39.996C92.737 39.652 92.829 39.26 92.829 38.82C92.829 38.38 92.737 37.992 92.553 37.656C92.369 37.312 92.113 37.048 91.785 36.864C91.457 36.68 91.093 36.588 90.693 36.588C90.285 36.588 89.917 36.68 89.589 36.864C89.269 37.048 89.013 37.312 88.821 37.656C88.637 37.992 88.545 38.38 88.545 38.82C88.545 39.26 88.637 39.652 88.821 39.996C89.013 40.332 89.269 40.596 89.589 40.788C89.917 40.972 90.285 41.064 90.693 41.064ZM42.0977 48.972C41.4097 48.972 41.0657 49.344 41.0657 50.088V50.64H42.9137V51.588H41.0897V57H39.9377V51.588H38.8577V50.64H39.9377V50.076C39.9377 49.444 40.1217 48.944 40.4897 48.576C40.8577 48.208 41.3737 48.024 42.0377 48.024C42.2937 48.024 42.5337 48.056 42.7577 48.12C42.9817 48.184 43.1737 48.276 43.3337 48.396L42.9857 49.272C42.7217 49.072 42.4257 48.972 42.0977 48.972ZM44.9657 50.64H46.1177V57H44.9657V50.64ZM45.5417 49.416C45.3177 49.416 45.1297 49.344 44.9777 49.2C44.8337 49.056 44.7617 48.88 44.7617 48.672C44.7617 48.464 44.8337 48.288 44.9777 48.144C45.1297 47.992 45.3177 47.916 45.5417 47.916C45.7657 47.916 45.9497 47.988 46.0937 48.132C46.2457 48.268 46.3217 48.44 46.3217 48.648C46.3217 48.864 46.2457 49.048 46.0937 49.2C45.9497 49.344 45.7657 49.416 45.5417 49.416ZM48.3127 48.096H49.4647V57H48.3127V48.096ZM57.4123 53.856C57.4123 53.944 57.4043 54.06 57.3883 54.204H52.2283C52.3003 54.764 52.5443 55.216 52.9603 55.56C53.3843 55.896 53.9083 56.064 54.5323 56.064C55.2923 56.064 55.9043 55.808 56.3683 55.296L57.0043 56.04C56.7163 56.376 56.3563 56.632 55.9243 56.808C55.5003 56.984 55.0243 57.072 54.4963 57.072C53.8243 57.072 53.2283 56.936 52.7083 56.664C52.1883 56.384 51.7843 55.996 51.4963 55.5C51.2163 55.004 51.0763 54.444 51.0763 53.82C51.0763 53.204 51.2123 52.648 51.4843 52.152C51.7643 51.656 52.1443 51.272 52.6243 51C53.1123 50.72 53.6603 50.58 54.2683 50.58C54.8763 50.58 55.4163 50.72 55.8883 51C56.3683 51.272 56.7403 51.656 57.0043 52.152C57.2763 52.648 57.4123 53.216 57.4123 53.856ZM54.2683 51.552C53.7163 51.552 53.2523 51.72 52.8763 52.056C52.5083 52.392 52.2923 52.832 52.2283 53.376H56.3083C56.2443 52.84 56.0243 52.404 55.6483 52.068C55.2803 51.724 54.8203 51.552 54.2683 51.552ZM64.7959 57L62.9839 54.42C62.7599 54.436 62.5839 54.444 62.4559 54.444H60.3799V57H59.1799V48.6H62.4559C63.5439 48.6 64.3999 48.86 65.0239 49.38C65.6479 49.9 65.9599 50.616 65.9599 51.528C65.9599 52.176 65.7999 52.728 65.4799 53.184C65.1599 53.64 64.7039 53.972 64.1119 54.18L66.1039 57H64.7959ZM62.4199 53.424C63.1799 53.424 63.7599 53.26 64.1599 52.932C64.5599 52.604 64.7599 52.136 64.7599 51.528C64.7599 50.92 64.5599 50.456 64.1599 50.136C63.7599 49.808 63.1799 49.644 62.4199 49.644H60.3799V53.424H62.4199ZM73.4787 53.856C73.4787 53.944 73.4707 54.06 73.4547 54.204H68.2947C68.3667 54.764 68.6107 55.216 69.0267 55.56C69.4507 55.896 69.9747 56.064 70.5987 56.064C71.3587 56.064 71.9707 55.808 72.4347 55.296L73.0707 56.04C72.7827 56.376 72.4227 56.632 71.9907 56.808C71.5667 56.984 71.0907 57.072 70.5627 57.072C69.8907 57.072 69.2947 56.936 68.7747 56.664C68.2547 56.384 67.8507 55.996 67.5627 55.5C67.2827 55.004 67.1427 54.444 67.1427 53.82C67.1427 53.204 67.2787 52.648 67.5507 52.152C67.8307 51.656 68.2107 51.272 68.6907 51C69.1787 50.72 69.7267 50.58 70.3347 50.58C70.9427 50.58 71.4827 50.72 71.9547 51C72.4347 51.272 72.8067 51.656 73.0707 52.152C73.3427 52.648 73.4787 53.216 73.4787 53.856ZM70.3347 51.552C69.7827 51.552 69.3187 51.72 68.9427 52.056C68.5747 52.392 68.3587 52.832 68.2947 53.376H72.3747C72.3107 52.84 72.0907 52.404 71.7147 52.068C71.3467 51.724 70.8867 51.552 70.3347 51.552ZM77.8503 57.072C77.2023 57.072 76.6223 56.932 76.1103 56.652C75.6063 56.372 75.2103 55.988 74.9223 55.5C74.6343 55.004 74.4903 54.444 74.4903 53.82C74.4903 53.196 74.6343 52.64 74.9223 52.152C75.2103 51.656 75.6063 51.272 76.1103 51C76.6223 50.72 77.2023 50.58 77.8503 50.58C78.4263 50.58 78.9383 50.696 79.3863 50.928C79.8423 51.16 80.1943 51.496 80.4423 51.936L79.5663 52.5C79.3663 52.196 79.1183 51.968 78.8223 51.816C78.5263 51.664 78.1983 51.588 77.8383 51.588C77.4223 51.588 77.0463 51.68 76.7103 51.864C76.3823 52.048 76.1223 52.312 75.9303 52.656C75.7463 52.992 75.6543 53.38 75.6543 53.82C75.6543 54.268 75.7463 54.664 75.9303 55.008C76.1223 55.344 76.3823 55.604 76.7103 55.788C77.0463 55.972 77.4223 56.064 77.8383 56.064C78.1983 56.064 78.5263 55.988 78.8223 55.836C79.1183 55.684 79.3663 55.456 79.5663 55.152L80.4423 55.704C80.1943 56.144 79.8423 56.484 79.3863 56.724C78.9383 56.956 78.4263 57.072 77.8503 57.072ZM87.588 53.856C87.588 53.944 87.58 54.06 87.564 54.204H82.404C82.476 54.764 82.72 55.216 83.136 55.56C83.56 55.896 84.084 56.064 84.708 56.064C85.468 56.064 86.08 55.808 86.544 55.296L87.18 56.04C86.892 56.376 86.532 56.632 86.1 56.808C85.676 56.984 85.2 57.072 84.672 57.072C84 57.072 83.404 56.936 82.884 56.664C82.364 56.384 81.96 55.996 81.672 55.5C81.392 55.004 81.252 54.444 81.252 53.82C81.252 53.204 81.388 52.648 81.66 52.152C81.94 51.656 82.32 51.272 82.8 51C83.288 50.72 83.836 50.58 84.444 50.58C85.052 50.58 85.592 50.72 86.064 51C86.544 51.272 86.916 51.656 87.18 52.152C87.452 52.648 87.588 53.216 87.588 53.856ZM84.444 51.552C83.892 51.552 83.428 51.72 83.052 52.056C82.684 52.392 82.468 52.832 82.404 53.376H86.484C86.42 52.84 86.2 52.404 85.824 52.068C85.456 51.724 84.996 51.552 84.444 51.552ZM89.1877 50.64H90.3397V57H89.1877V50.64ZM89.7637 49.416C89.5397 49.416 89.3517 49.344 89.1997 49.2C89.0557 49.056 88.9837 48.88 88.9837 48.672C88.9837 48.464 89.0557 48.288 89.1997 48.144C89.3517 47.992 89.5397 47.916 89.7637 47.916C89.9877 47.916 90.1717 47.988 90.3157 48.132C90.4677 48.268 90.5437 48.44 90.5437 48.648C90.5437 48.864 90.4677 49.048 90.3157 49.2C90.1717 49.344 89.9877 49.416 89.7637 49.416ZM98.1673 50.64L95.3833 57H94.2073L91.4233 50.64H92.6233L94.8073 55.74L97.0393 50.64H98.1673ZM104.815 53.856C104.815 53.944 104.807 54.06 104.791 54.204H99.6306C99.7026 54.764 99.9466 55.216 100.363 55.56C100.787 55.896 101.311 56.064 101.935 56.064C102.695 56.064 103.307 55.808 103.771 55.296L104.407 56.04C104.119 56.376 103.759 56.632 103.327 56.808C102.903 56.984 102.427 57.072 101.899 57.072C101.227 57.072 100.631 56.936 100.111 56.664C99.5906 56.384 99.1866 55.996 98.8986 55.5C98.6186 55.004 98.4786 54.444 98.4786 53.82C98.4786 53.204 98.6146 52.648 98.8866 52.152C99.1666 51.656 99.5466 51.272 100.027 51C100.515 50.72 101.063 50.58 101.671 50.58C102.279 50.58 102.819 50.72 103.291 51C103.771 51.272 104.143 51.656 104.407 52.152C104.679 52.648 104.815 53.216 104.815 53.856ZM101.671 51.552C101.119 51.552 100.655 51.72 100.279 52.056C99.9106 52.392 99.6946 52.832 99.6306 53.376H103.711C103.647 52.84 103.427 52.404 103.051 52.068C102.683 51.724 102.223 51.552 101.671 51.552Z" fill="#222222"/>
<path d="M276.709 41.466C277.441 41.67 278.017 42.042 278.437 42.582C278.857 43.11 279.067 43.782 279.067 44.598C279.067 45.69 278.653 46.53 277.825 47.118C277.009 47.706 275.815 48 274.243 48H268.231V35.4H273.883C275.323 35.4 276.433 35.688 277.213 36.264C278.005 36.84 278.401 37.638 278.401 38.658C278.401 39.318 278.245 39.888 277.933 40.368C277.633 40.848 277.225 41.214 276.709 41.466ZM270.031 36.858V40.89H273.721C274.645 40.89 275.353 40.722 275.845 40.386C276.349 40.038 276.601 39.534 276.601 38.874C276.601 38.214 276.349 37.716 275.845 37.38C275.353 37.032 274.645 36.858 273.721 36.858H270.031ZM274.171 46.542C275.191 46.542 275.959 46.374 276.475 46.038C276.991 45.702 277.249 45.174 277.249 44.454C277.249 43.05 276.223 42.348 274.171 42.348H270.031V46.542H274.171ZM285.688 48.108C284.74 48.108 283.888 47.898 283.132 47.478C282.376 47.058 281.782 46.482 281.35 45.75C280.93 45.006 280.72 44.166 280.72 43.23C280.72 42.294 280.93 41.46 281.35 40.728C281.782 39.984 282.376 39.408 283.132 39C283.888 38.58 284.74 38.37 285.688 38.37C286.636 38.37 287.482 38.58 288.226 39C288.982 39.408 289.57 39.984 289.99 40.728C290.422 41.46 290.638 42.294 290.638 43.23C290.638 44.166 290.422 45.006 289.99 45.75C289.57 46.482 288.982 47.058 288.226 47.478C287.482 47.898 286.636 48.108 285.688 48.108ZM285.688 46.596C286.3 46.596 286.846 46.458 287.326 46.182C287.818 45.894 288.202 45.498 288.478 44.994C288.754 44.478 288.892 43.89 288.892 43.23C288.892 42.57 288.754 41.988 288.478 41.484C288.202 40.968 287.818 40.572 287.326 40.296C286.846 40.02 286.3 39.882 285.688 39.882C285.076 39.882 284.524 40.02 284.032 40.296C283.552 40.572 283.168 40.968 282.88 41.484C282.604 41.988 282.466 42.57 282.466 43.23C282.466 43.89 282.604 44.478 282.88 44.994C283.168 45.498 283.552 45.894 284.032 46.182C284.524 46.458 285.076 46.596 285.688 46.596ZM298.086 38.37C299.01 38.37 299.838 38.574 300.57 38.982C301.302 39.39 301.872 39.96 302.28 40.692C302.7 41.424 302.91 42.27 302.91 43.23C302.91 44.19 302.7 45.042 302.28 45.786C301.872 46.518 301.302 47.088 300.57 47.496C299.838 47.904 299.01 48.108 298.086 48.108C297.378 48.108 296.73 47.97 296.142 47.694C295.554 47.418 295.068 47.016 294.684 46.488V48H293.028V34.644H294.756V39.9C295.14 39.396 295.62 39.018 296.196 38.766C296.772 38.502 297.402 38.37 298.086 38.37ZM297.942 46.596C298.554 46.596 299.1 46.458 299.58 46.182C300.072 45.894 300.456 45.498 300.732 44.994C301.02 44.478 301.164 43.89 301.164 43.23C301.164 42.57 301.02 41.988 300.732 41.484C300.456 40.968 300.072 40.572 299.58 40.296C299.1 40.02 298.554 39.882 297.942 39.882C297.342 39.882 296.796 40.02 296.304 40.296C295.812 40.572 295.428 40.968 295.152 41.484C294.876 41.988 294.738 42.57 294.738 43.23C294.738 43.89 294.876 44.478 295.152 44.994C295.428 45.498 295.812 45.894 296.304 46.182C296.796 46.458 297.342 46.596 297.942 46.596Z" fill="#FE812D"/>
<path d="M351.028 27.856C351.028 27.944 351.02 28.06 351.004 28.204H345.844C345.916 28.764 346.16 29.216 346.576 29.56C347 29.896 347.524 30.064 348.148 30.064C348.908 30.064 349.52 29.808 349.984 29.296L350.62 30.04C350.332 30.376 349.972 30.632 349.54 30.808C349.116 30.984 348.64 31.072 348.112 31.072C347.44 31.072 346.844 30.936 346.324 30.664C345.804 30.384 345.4 29.996 345.112 29.5C344.832 29.004 344.692 28.444 344.692 27.82C344.692 27.204 344.828 26.648 345.1 26.152C345.38 25.656 345.76 25.272 346.24 25C346.728 24.72 347.276 24.58 347.884 24.58C348.492 24.58 349.032 24.72 349.504 25C349.984 25.272 350.356 25.656 350.62 26.152C350.892 26.648 351.028 27.216 351.028 27.856ZM347.884 25.552C347.332 25.552 346.868 25.72 346.492 26.056C346.124 26.392 345.908 26.832 345.844 27.376H349.924C349.86 26.84 349.64 26.404 349.264 26.068C348.896 25.724 348.436 25.552 347.884 25.552ZM355.531 27.268L353.995 28.828V31H352.795V22.6H353.995V27.292L358.555 22.6H359.923L356.335 26.38L360.151 31H358.747L355.531 27.268ZM366.719 27.856C366.719 27.944 366.711 28.06 366.695 28.204H361.535C361.607 28.764 361.851 29.216 362.267 29.56C362.691 29.896 363.215 30.064 363.839 30.064C364.599 30.064 365.211 29.808 365.675 29.296L366.311 30.04C366.023 30.376 365.663 30.632 365.231 30.808C364.807 30.984 364.331 31.072 363.803 31.072C363.131 31.072 362.535 30.936 362.015 30.664C361.495 30.384 361.091 29.996 360.803 29.5C360.523 29.004 360.383 28.444 360.383 27.82C360.383 27.204 360.519 26.648 360.791 26.152C361.071 25.656 361.451 25.272 361.931 25C362.419 24.72 362.967 24.58 363.575 24.58C364.183 24.58 364.723 24.72 365.195 25C365.675 25.272 366.047 25.656 366.311 26.152C366.583 26.648 366.719 27.216 366.719 27.856ZM363.575 25.552C363.023 25.552 362.559 25.72 362.183 26.056C361.815 26.392 361.599 26.832 361.535 27.376H365.615C365.551 26.84 365.331 26.404 364.955 26.068C364.587 25.724 364.127 25.552 363.575 25.552ZM373.829 24.64L370.745 31.636C370.473 32.284 370.153 32.74 369.785 33.004C369.425 33.268 368.989 33.4 368.477 33.4C368.165 33.4 367.861 33.348 367.565 33.244C367.277 33.148 367.037 33.004 366.845 32.812L367.337 31.948C367.665 32.26 368.045 32.416 368.477 32.416C368.757 32.416 368.989 32.34 369.173 32.188C369.365 32.044 369.537 31.792 369.689 31.432L369.893 30.988L367.085 24.64H368.285L370.505 29.728L372.701 24.64H373.829ZM339.363 37.972C338.675 37.972 338.331 38.344 338.331 39.088V39.64H340.179V40.588H338.355V46H337.203V40.588H336.123V39.64H337.203V39.076C337.203 38.444 337.387 37.944 337.755 37.576C338.123 37.208 338.639 37.024 339.303 37.024C339.559 37.024 339.799 37.056 340.023 37.12C340.247 37.184 340.439 37.276 340.599 37.396L340.251 38.272C339.987 38.072 339.691 37.972 339.363 37.972ZM341.271 37.096H342.423V46H341.271V37.096ZM350.365 42.856C350.365 42.944 350.357 43.06 350.341 43.204H345.181C345.253 43.764 345.497 44.216 345.913 44.56C346.337 44.896 346.861 45.064 347.485 45.064C348.245 45.064 348.857 44.808 349.321 44.296L349.957 45.04C349.669 45.376 349.309 45.632 348.877 45.808C348.453 45.984 347.977 46.072 347.449 46.072C346.777 46.072 346.181 45.936 345.661 45.664C345.141 45.384 344.737 44.996 344.449 44.5C344.169 44.004 344.029 43.444 344.029 42.82C344.029 42.204 344.165 41.648 344.437 41.152C344.717 40.656 345.097 40.272 345.577 40C346.065 39.72 346.613 39.58 347.221 39.58C347.829 39.58 348.369 39.72 348.841 40C349.321 40.272 349.693 40.656 349.957 41.152C350.229 41.648 350.365 42.216 350.365 42.856ZM347.221 40.552C346.669 40.552 346.205 40.72 345.829 41.056C345.461 41.392 345.245 41.832 345.181 42.376H349.261C349.197 41.84 348.977 41.404 348.601 41.068C348.233 40.724 347.773 40.552 347.221 40.552ZM354.581 46.096C353.949 46.096 353.337 46 352.745 45.808C352.161 45.608 351.701 45.352 351.365 45.04L351.809 44.104C352.129 44.392 352.537 44.628 353.033 44.812C353.537 44.988 354.053 45.076 354.581 45.076C355.277 45.076 355.797 44.96 356.141 44.728C356.485 44.488 356.657 44.172 356.657 43.78C356.657 43.492 356.561 43.26 356.369 43.084C356.185 42.9 355.953 42.76 355.673 42.664C355.401 42.568 355.013 42.46 354.509 42.34C353.877 42.188 353.365 42.036 352.973 41.884C352.589 41.732 352.257 41.5 351.977 41.188C351.705 40.868 351.569 40.44 351.569 39.904C351.569 39.456 351.685 39.052 351.917 38.692C352.157 38.332 352.517 38.044 352.997 37.828C353.477 37.612 354.073 37.504 354.785 37.504C355.281 37.504 355.769 37.568 356.249 37.696C356.729 37.824 357.141 38.008 357.485 38.248L357.089 39.208C356.737 38.984 356.361 38.816 355.961 38.704C355.561 38.584 355.169 38.524 354.785 38.524C354.105 38.524 353.593 38.648 353.249 38.896C352.913 39.144 352.745 39.464 352.745 39.856C352.745 40.144 352.841 40.38 353.033 40.564C353.225 40.74 353.461 40.88 353.741 40.984C354.029 41.08 354.417 41.184 354.905 41.296C355.537 41.448 356.045 41.6 356.429 41.752C356.813 41.904 357.141 42.136 357.413 42.448C357.693 42.76 357.833 43.18 357.833 43.708C357.833 44.148 357.713 44.552 357.473 44.92C357.233 45.28 356.869 45.568 356.381 45.784C355.893 45.992 355.293 46.096 354.581 46.096ZM365.166 42.856C365.166 42.944 365.158 43.06 365.142 43.204H359.982C360.054 43.764 360.298 44.216 360.714 44.56C361.138 44.896 361.662 45.064 362.286 45.064C363.046 45.064 363.658 44.808 364.122 44.296L364.758 45.04C364.47 45.376 364.11 45.632 363.678 45.808C363.254 45.984 362.778 46.072 362.25 46.072C361.578 46.072 360.982 45.936 360.462 45.664C359.942 45.384 359.538 44.996 359.25 44.5C358.97 44.004 358.83 43.444 358.83 42.82C358.83 42.204 358.966 41.648 359.238 41.152C359.518 40.656 359.898 40.272 360.378 40C360.866 39.72 361.414 39.58 362.022 39.58C362.63 39.58 363.17 39.72 363.642 40C364.122 40.272 364.494 40.656 364.758 41.152C365.03 41.648 365.166 42.216 365.166 42.856ZM362.022 40.552C361.47 40.552 361.006 40.72 360.63 41.056C360.262 41.392 360.046 41.832 359.982 42.376H364.062C363.998 41.84 363.778 41.404 363.402 41.068C363.034 40.724 362.574 40.552 362.022 40.552ZM370.162 39.58C370.97 39.58 371.61 39.816 372.082 40.288C372.562 40.752 372.802 41.436 372.802 42.34V46H371.65V42.472C371.65 41.856 371.502 41.392 371.206 41.08C370.91 40.768 370.486 40.612 369.934 40.612C369.31 40.612 368.818 40.796 368.458 41.164C368.098 41.524 367.918 42.044 367.918 42.724V46H366.766V39.64H367.87V40.6C368.102 40.272 368.414 40.02 368.806 39.844C369.206 39.668 369.658 39.58 370.162 39.58ZM380.969 37.096V46H379.865V44.992C379.609 45.344 379.285 45.612 378.893 45.796C378.501 45.98 378.069 46.072 377.597 46.072C376.981 46.072 376.429 45.936 375.941 45.664C375.453 45.392 375.069 45.012 374.789 44.524C374.517 44.028 374.381 43.46 374.381 42.82C374.381 42.18 374.517 41.616 374.789 41.128C375.069 40.64 375.453 40.26 375.941 39.988C376.429 39.716 376.981 39.58 377.597 39.58C378.053 39.58 378.473 39.668 378.857 39.844C379.241 40.012 379.561 40.264 379.817 40.6V37.096H380.969ZM377.693 45.064C378.093 45.064 378.457 44.972 378.785 44.788C379.113 44.596 379.369 44.332 379.553 43.996C379.737 43.652 379.829 43.26 379.829 42.82C379.829 42.38 379.737 41.992 379.553 41.656C379.369 41.312 379.113 41.048 378.785 40.864C378.457 40.68 378.093 40.588 377.693 40.588C377.285 40.588 376.917 40.68 376.589 40.864C376.269 41.048 376.013 41.312 375.821 41.656C375.637 41.992 375.545 42.38 375.545 42.82C375.545 43.26 375.637 43.652 375.821 43.996C376.013 44.332 376.269 44.596 376.589 44.788C376.917 44.972 377.285 45.064 377.693 45.064ZM329.098 52.972C328.41 52.972 328.066 53.344 328.066 54.088V54.64H329.914V55.588H328.09V61H326.938V55.588H325.858V54.64H326.938V54.076C326.938 53.444 327.122 52.944 327.49 52.576C327.858 52.208 328.374 52.024 329.038 52.024C329.294 52.024 329.534 52.056 329.758 52.12C329.982 52.184 330.174 52.276 330.334 52.396L329.986 53.272C329.722 53.072 329.426 52.972 329.098 52.972ZM331.966 54.64H333.118V61H331.966V54.64ZM332.542 53.416C332.318 53.416 332.13 53.344 331.978 53.2C331.834 53.056 331.762 52.88 331.762 52.672C331.762 52.464 331.834 52.288 331.978 52.144C332.13 51.992 332.318 51.916 332.542 51.916C332.766 51.916 332.95 51.988 333.094 52.132C333.246 52.268 333.322 52.44 333.322 52.648C333.322 52.864 333.246 53.048 333.094 53.2C332.95 53.344 332.766 53.416 332.542 53.416ZM335.313 52.096H336.465V61H335.313V52.096ZM344.412 57.856C344.412 57.944 344.404 58.06 344.388 58.204H339.228C339.3 58.764 339.544 59.216 339.96 59.56C340.384 59.896 340.908 60.064 341.532 60.064C342.292 60.064 342.904 59.808 343.368 59.296L344.004 60.04C343.716 60.376 343.356 60.632 342.924 60.808C342.5 60.984 342.024 61.072 341.496 61.072C340.824 61.072 340.228 60.936 339.708 60.664C339.188 60.384 338.784 59.996 338.496 59.5C338.216 59.004 338.076 58.444 338.076 57.82C338.076 57.204 338.212 56.648 338.484 56.152C338.764 55.656 339.144 55.272 339.624 55C340.112 54.72 340.66 54.58 341.268 54.58C341.876 54.58 342.416 54.72 342.888 55C343.368 55.272 343.74 55.656 344.004 56.152C344.276 56.648 344.412 57.216 344.412 57.856ZM341.268 55.552C340.716 55.552 340.252 55.72 339.876 56.056C339.508 56.392 339.292 56.832 339.228 57.376H343.308C343.244 56.84 343.024 56.404 342.648 56.068C342.28 55.724 341.82 55.552 341.268 55.552ZM351.796 61L349.984 58.42C349.76 58.436 349.584 58.444 349.456 58.444H347.38V61H346.18V52.6H349.456C350.544 52.6 351.4 52.86 352.024 53.38C352.648 53.9 352.96 54.616 352.96 55.528C352.96 56.176 352.8 56.728 352.48 57.184C352.16 57.64 351.704 57.972 351.112 58.18L353.104 61H351.796ZM349.42 57.424C350.18 57.424 350.76 57.26 351.16 56.932C351.56 56.604 351.76 56.136 351.76 55.528C351.76 54.92 351.56 54.456 351.16 54.136C350.76 53.808 350.18 53.644 349.42 53.644H347.38V57.424H349.42ZM360.479 57.856C360.479 57.944 360.471 58.06 360.455 58.204H355.295C355.367 58.764 355.611 59.216 356.027 59.56C356.451 59.896 356.975 60.064 357.599 60.064C358.359 60.064 358.971 59.808 359.435 59.296L360.071 60.04C359.783 60.376 359.423 60.632 358.991 60.808C358.567 60.984 358.091 61.072 357.563 61.072C356.891 61.072 356.295 60.936 355.775 60.664C355.255 60.384 354.851 59.996 354.563 59.5C354.283 59.004 354.143 58.444 354.143 57.82C354.143 57.204 354.279 56.648 354.551 56.152C354.831 55.656 355.211 55.272 355.691 55C356.179 54.72 356.727 54.58 357.335 54.58C357.943 54.58 358.483 54.72 358.955 55C359.435 55.272 359.807 55.656 360.071 56.152C360.343 56.648 360.479 57.216 360.479 57.856ZM357.335 55.552C356.783 55.552 356.319 55.72 355.943 56.056C355.575 56.392 355.359 56.832 355.295 57.376H359.375C359.311 56.84 359.091 56.404 358.715 56.068C358.347 55.724 357.887 55.552 357.335 55.552ZM364.85 61.072C364.202 61.072 363.622 60.932 363.11 60.652C362.606 60.372 362.21 59.988 361.922 59.5C361.634 59.004 361.49 58.444 361.49 57.82C361.49 57.196 361.634 56.64 361.922 56.152C362.21 55.656 362.606 55.272 363.11 55C363.622 54.72 364.202 54.58 364.85 54.58C365.426 54.58 365.938 54.696 366.386 54.928C366.842 55.16 367.194 55.496 367.442 55.936L366.566 56.5C366.366 56.196 366.118 55.968 365.822 55.816C365.526 55.664 365.198 55.588 364.838 55.588C364.422 55.588 364.046 55.68 363.71 55.864C363.382 56.048 363.122 56.312 362.93 56.656C362.746 56.992 362.654 57.38 362.654 57.82C362.654 58.268 362.746 58.664 362.93 59.008C363.122 59.344 363.382 59.604 363.71 59.788C364.046 59.972 364.422 60.064 364.838 60.064C365.198 60.064 365.526 59.988 365.822 59.836C366.118 59.684 366.366 59.456 366.566 59.152L367.442 59.704C367.194 60.144 366.842 60.484 366.386 60.724C365.938 60.956 365.426 61.072 364.85 61.072ZM374.588 57.856C374.588 57.944 374.58 58.06 374.564 58.204H369.404C369.476 58.764 369.72 59.216 370.136 59.56C370.56 59.896 371.084 60.064 371.708 60.064C372.468 60.064 373.08 59.808 373.544 59.296L374.18 60.04C373.892 60.376 373.532 60.632 373.1 60.808C372.676 60.984 372.2 61.072 371.672 61.072C371 61.072 370.404 60.936 369.884 60.664C369.364 60.384 368.96 59.996 368.672 59.5C368.392 59.004 368.252 58.444 368.252 57.82C368.252 57.204 368.388 56.648 368.66 56.152C368.94 55.656 369.32 55.272 369.8 55C370.288 54.72 370.836 54.58 371.444 54.58C372.052 54.58 372.592 54.72 373.064 55C373.544 55.272 373.916 55.656 374.18 56.152C374.452 56.648 374.588 57.216 374.588 57.856ZM371.444 55.552C370.892 55.552 370.428 55.72 370.052 56.056C369.684 56.392 369.468 56.832 369.404 57.376H373.484C373.42 56.84 373.2 56.404 372.824 56.068C372.456 55.724 371.996 55.552 371.444 55.552ZM376.188 54.64H377.34V61H376.188V54.64ZM376.764 53.416C376.54 53.416 376.352 53.344 376.2 53.2C376.056 53.056 375.984 52.88 375.984 52.672C375.984 52.464 376.056 52.288 376.2 52.144C376.352 51.992 376.54 51.916 376.764 51.916C376.988 51.916 377.172 51.988 377.316 52.132C377.468 52.268 377.544 52.44 377.544 52.648C377.544 52.864 377.468 53.048 377.316 53.2C377.172 53.344 376.988 53.416 376.764 53.416ZM385.167 54.64L382.383 61H381.207L378.423 54.64H379.623L381.807 59.74L384.039 54.64H385.167ZM391.815 57.856C391.815 57.944 391.807 58.06 391.791 58.204H386.631C386.703 58.764 386.947 59.216 387.363 59.56C387.787 59.896 388.311 60.064 388.935 60.064C389.695 60.064 390.307 59.808 390.771 59.296L391.407 60.04C391.119 60.376 390.759 60.632 390.327 60.808C389.903 60.984 389.427 61.072 388.899 61.072C388.227 61.072 387.631 60.936 387.111 60.664C386.591 60.384 386.187 59.996 385.899 59.5C385.619 59.004 385.479 58.444 385.479 57.82C385.479 57.204 385.615 56.648 385.887 56.152C386.167 55.656 386.547 55.272 387.027 55C387.515 54.72 388.063 54.58 388.671 54.58C389.279 54.58 389.819 54.72 390.291 55C390.771 55.272 391.143 55.656 391.407 56.152C391.679 56.648 391.815 57.216 391.815 57.856ZM388.671 55.552C388.119 55.552 387.655 55.72 387.279 56.056C386.911 56.392 386.695 56.832 386.631 57.376H390.711C390.647 56.84 390.427 56.404 390.051 56.068C389.683 55.724 389.223 55.552 388.671 55.552Z" fill="#222222"/>
<path d="M189.293 40.2929C188.902 40.6834 188.902 41.3166 189.293 41.7071L195.657 48.0711C196.047 48.4616 196.681 48.4616 197.071 48.0711C197.462 47.6805 197.462 47.0474 197.071 46.6569L191.414 41L197.071 35.3431C197.462 34.9526 197.462 34.3195 197.071 33.9289C196.681 33.5384 196.047 33.5384 195.657 33.9289L189.293 40.2929ZM253.207 41.7071C253.598 41.3166 253.598 40.6834 253.207 40.2929L246.843 33.9289C246.453 33.5384 245.819 33.5384 245.429 33.9289C245.038 34.3195 245.038 34.9526 245.429 35.3431L251.086 41L245.429 46.6569C245.038 47.0474 245.038 47.6805 245.429 48.0711C245.819 48.4616 246.453 48.4616 246.843 48.0711L253.207 41.7071ZM190 42H252.5V40H190V42Z" fill="#FE812D"/>
</svg>
